<svg width="942" height="116" viewBox="0 0 942 116" fill="none" xmlns="http://www.w3.org/2000/svg">
<path d="M837.443 0H785.158V23.2009H837.443V0Z" fill="#EFEFEF" fill-opacity="0.2"/>
<path d="M889.728 23.2002H837.442V46.401H889.728V23.2002Z" fill="#EFEFEF" fill-opacity="0.2"/>
<path d="M941.999 46.4009H889.714V69.6017H941.999V46.4009Z" fill="#EFEFEF" fill-opacity="0.2"/>
<path d="M889.728 69.5962H837.442V92.797H889.728V69.5962Z" fill="#EFEFEF" fill-opacity="0.2"/>
<path d="M837.443 92.7993H785.158V116H837.443V92.7993Z" fill="#EFEFEF" fill-opacity="0.2"/>
<path d="M575.725 0H523.439V23.2009H575.725V0Z" fill="#EFEFEF" fill-opacity="0.2"/>
<path d="M628.009 23.2002H575.724V46.401H628.009V23.2002Z" fill="#EFEFEF" fill-opacity="0.2"/>
<path d="M680.281 46.3955H627.996V69.5963H680.281V46.3955Z" fill="#EFEFEF" fill-opacity="0.2"/>
<path d="M628.009 69.5962H575.724V92.797H628.009V69.5962Z" fill="#EFEFEF" fill-opacity="0.2"/>
<path d="M575.725 92.7993H523.439V116H575.725V92.7993Z" fill="#EFEFEF" fill-opacity="0.2"/>
<path d="M314.005 0H261.72V23.2009H314.005V0Z" fill="#EFEFEF" fill-opacity="0.2"/>
<path d="M366.289 23.2002H314.004V46.401H366.289V23.2002Z" fill="#EFEFEF" fill-opacity="0.2"/>
<path d="M418.561 46.3955H366.275V69.5963H418.561V46.3955Z" fill="#EFEFEF" fill-opacity="0.2"/>
<path d="M366.289 69.5962H314.004V92.797H366.289V69.5962Z" fill="#EFEFEF" fill-opacity="0.2"/>
<path d="M314.005 92.7993H261.72V116H314.005V92.7993Z" fill="#EFEFEF" fill-opacity="0.2"/>
<path d="M52.2853 0H0V23.2009H52.2853V0Z" fill="#EFEFEF" fill-opacity="0.2"/>
<path d="M104.568 23.2002H52.2832V46.401H104.568V23.2002Z" fill="#EFEFEF" fill-opacity="0.2"/>
<path d="M156.842 46.3955H104.557V69.5963H156.842V46.3955Z" fill="#EFEFEF" fill-opacity="0.2"/>
<path d="M104.568 69.5962H52.2832V92.797H104.568V69.5962Z" fill="#EFEFEF" fill-opacity="0.2"/>
<path d="M52.2853 92.7993H0V116H52.2853V92.7993Z" fill="#EFEFEF" fill-opacity="0.2"/>
</svg>
