<svg width="765" height="765" viewBox="0 0 765 765" fill="none" xmlns="http://www.w3.org/2000/svg">
<path d="M720 765H45V720H720V765Z" fill="#D9D9D9"/>
<path d="M45 90H720V45H765V720H720V135H45V720H0V45H45V90Z" fill="#D9D9D9"/>
<path d="M135 630H90V585H135V630Z" fill="#D9D9D9"/>
<path d="M405 630H180V585H405V630Z" fill="#D9D9D9"/>
<path d="M495 630H450V585H495V630Z" fill="#F6417B"/>
<path d="M675 630H607.5H540V585H675V630Z" fill="#F6417B"/>
<path fill-rule="evenodd" clip-rule="evenodd" d="M315 360H360V405H405V540H360V450H315V540H180V450H135V540H90V405H135V360H180V225H225V270H270V225H225V180H315V360ZM225 361.5H270V315H225V361.5Z" fill="#D9D9D9"/>
<path d="M495 540H450V495H495V540Z" fill="#F6417B"/>
<path d="M675 540H540V495H675V540Z" fill="#F6417B"/>
<path d="M675 451.5H540V406.5H675V451.5Z" fill="#F6417B"/>
<path d="M495 450H450V405H495V450Z" fill="#F6417B"/>
<path d="M585 225H630V270H585V315H540V270H495V225H540V180H585V225Z" fill="#36EBFF"/>
<path d="M720 45H45V0H720V45Z" fill="#D9D9D9"/>
<path fill-rule="evenodd" clip-rule="evenodd" d="M45 720H720V135H45V720ZM90 630H135V585H90V630ZM180 630H405V585H180V630ZM450 630H495V585H450V630ZM540 585V630H607.5H675V585H540ZM315 360H360V405H405V540H360V450H315V540H180V450H135V540H90V405H135V360H180V225H225V180H315V360ZM450 540H495V495H450V540ZM540 540H675V495H540V540ZM540 451.5H675V406.5H540V451.5ZM450 450H495V405H450V450ZM630 225H585V180H540V225H495V270H540V315H585V270H630V225Z" fill="#262626"/>
<path d="M45 90H720V45H45V90Z" fill="#262626"/>
<g opacity="0.3">
</g>
</svg>
