<svg width="765" height="765" viewBox="0 0 765 765" fill="none" xmlns="http://www.w3.org/2000/svg">
<path d="M585 765H180V720H585V765Z" fill="#D9D9D9"/>
<path d="M180 720H135V675H180V720Z" fill="#D9D9D9"/>
<path d="M630 720H585V675H630V720Z" fill="#D9D9D9"/>
<path d="M270 675H180V630H270V675Z" fill="#D9D9D9"/>
<path d="M585 675H495V630H585V675Z" fill="#D9D9D9"/>
<path d="M720 585H495V630H270V585H45V540H720V585Z" fill="#D9D9D9"/>
<path d="M45 540H0V45H45V540Z" fill="#D9D9D9"/>
<path d="M765 540H720V45H765V540Z" fill="#D9D9D9"/>
<path d="M180 358.5H315V403.5H180V360H135V292.5V225H180V358.5Z" fill="#F6417B"/>
<path d="M585 403.5H450V358.5H585V403.5Z" fill="#F6417B"/>
<path d="M405 313.5H450V358.5H405V315H360V270H405V313.5Z" fill="#F6417B"/>
<path d="M630 358.5H585V225H630V358.5Z" fill="#F6417B"/>
<path d="M360 270H315V225H360V270Z" fill="#F6417B"/>
<path d="M315 225H180V180H315V225Z" fill="#F6417B"/>
<path d="M585 225H450V180H585V225Z" fill="#F6417B"/>
<path d="M720 45H45V0H720V45Z" fill="#D9D9D9"/>
<path fill-rule="evenodd" clip-rule="evenodd" d="M45 540H720V45H45V540ZM180 358.5H315V403.5H180V360H135V292.5V225H180V180H315V225H360V270H405V313.5H450V358.5H585V225H450V180H585V225H630V358.5H585V403.5H450V358.5H405V315H360V270H315V225H180V358.5Z" fill="#262626"/>
<path d="M180 720H585V675H495V630H270V675H180V720Z" fill="#262626"/>
<g opacity="0.3" filter="url(#filter0_f_127_217)">
<path d="M180 358.5H315V403.5H180V360H135V292.5V225H180V358.5Z" fill="#F6417B"/>
<path d="M585 403.5H450V358.5H585V403.5Z" fill="#F6417B"/>
<path d="M405 313.5H450V358.5H405V315H360V270H405V313.5Z" fill="#F6417B"/>
<path d="M630 358.5H585V225H630V358.5Z" fill="#F6417B"/>
<path d="M360 270H315V225H360V270Z" fill="#F6417B"/>
<path d="M315 225H180V180H315V225Z" fill="#F6417B"/>
<path d="M585 225H450V180H585V225Z" fill="#F6417B"/>
</g>
<defs>
<filter id="filter0_f_127_217" x="105" y="150" width="555" height="283.5" filterUnits="userSpaceOnUse" color-interpolation-filters="sRGB">
<feFlood flood-opacity="0" result="BackgroundImageFix"/>
<feBlend mode="normal" in="SourceGraphic" in2="BackgroundImageFix" result="shape"/>
<feGaussianBlur stdDeviation="15" result="effect1_foregroundBlur_127_217"/>
</filter>
</defs>
</svg>
