<svg width="2388" height="1824" viewBox="0 0 2388 1824" fill="none" xmlns="http://www.w3.org/2000/svg">
<path fill-rule="evenodd" clip-rule="evenodd" d="M1425.77 12.7514H1412.41H1399.06H1385.7V0H1399.06H1412.41H1425.77H1439.13H1452.48V12.7514H1465.84H1479.2V25.5027H1492.55V38.2541H1479.2V51.0055H1492.55V38.2541H1505.91V51.0055H1492.55V63.7568H1505.91V51.0055H1519.26V63.7568H1505.91V76.5082H1519.26V63.7568H1532.62V76.5082H1519.26V89.2596H1532.62V76.5082H1545.98V89.2596H1532.62V102.011H1545.98V89.2596H1559.33V102.011H1545.98V114.762H1559.33V102.011H1572.69V114.762H1559.33V127.514H1572.69V114.762H1586.04V127.514H1572.69V140.265H1586.04V127.514H1599.4V140.265H1586.04V153.016H1599.4V140.265H1612.76V153.016H1599.4V165.768H1612.76V153.016H1626.11V165.768H1612.76V178.519H1626.11V165.768H1639.47V178.519H1626.11V191.271H1639.47V178.519H1652.83V191.271H1639.47V204.022H1652.83V191.271H1666.18V204.022H1652.83V216.773H1666.18V204.022H1679.54V216.773H1666.18V229.525H1679.54V216.773H1692.89V229.525H1679.54V242.276H1692.89V229.525H1706.25V242.276H1692.89V255.027H1706.25V242.276H1719.61V255.027H1706.25V267.779H1719.61V255.027H1732.96V267.779H1719.61V280.53H1732.96V267.779H1746.32V280.53H1732.96V293.281H1746.32V280.53H1759.68V293.281H1746.32V306.033H1759.68V293.281H1773.03V306.033H1759.68V318.784H1773.03V306.033H1786.39V318.784H1799.74V331.536H1813.1V344.287H1826.46V357.038V369.79H1813.1V357.038V344.287H1799.74H1786.39V331.536H1773.03H1759.68H1746.32V344.287V357.038V369.79V382.541H1732.96V395.292V408.044V420.795H1719.61V433.547V446.298V459.049V471.801H1706.25V484.552V497.303V510.055H1719.61V522.806H1732.96V535.557H1746.32V548.309H1759.68V535.557V522.806V510.055H1773.03V497.303V484.552V471.801V459.049H1786.39V446.298V433.547V420.795H1799.74V408.044V395.292V382.541V369.79H1813.1V382.541V395.292V408.044V420.795H1799.74V433.547V446.298V459.049H1786.39V471.801V484.552V497.303V510.055H1773.03V522.806V535.557V548.309V561.06H1759.68H1746.32H1732.96V548.309H1719.61H1706.25V535.557H1692.89H1679.54V522.806H1666.18V510.055H1652.83V497.303H1639.47V484.552H1626.11V471.801H1612.76V459.049H1599.4V446.298H1586.04V433.547H1572.69V420.795H1559.33V408.044H1545.98V395.292H1532.62V382.541H1519.26V369.79H1505.91V357.038H1492.55V344.287H1479.2V331.536H1465.84V318.784H1452.48V306.033H1439.13V318.784H1425.77V306.033V293.281V280.53H1412.41V267.779H1399.06V255.027H1385.7V242.276H1372.35V255.027V267.779V280.53H1358.99V293.281V306.033V318.784V331.536H1345.63V344.287H1358.99V357.038H1372.35V369.79H1385.7V382.541H1399.06V369.79H1412.41V357.038V344.287V331.536V318.784H1425.77V331.536V344.287V357.038V369.79H1412.41V382.541V395.292H1399.06V408.044H1385.7V395.292H1372.35H1358.99V382.541H1345.63H1332.28V369.79H1318.92V357.038H1305.57V344.287H1292.21V331.536H1278.85V318.784H1265.5V306.033H1252.14V293.281H1238.78V280.53H1225.43V267.779H1212.07V255.027H1198.72V242.276H1185.36V229.525H1172V216.773H1185.36H1198.72H1212.07V229.525H1198.72V242.276H1212.07V255.027H1225.43V267.779H1238.78V280.53H1252.14V293.281H1265.5V306.033H1278.85V318.784H1292.21V331.536H1305.57V344.287H1318.92V357.038H1332.28V344.287V331.536H1318.92V318.784H1332.28V331.536H1345.63V318.784V306.033V293.281V280.53H1358.99V267.779V255.027V242.276V229.525H1372.35H1385.7H1399.06V242.276H1412.41H1425.77V255.027H1412.41V267.779H1425.77V280.53H1439.13V267.779H1425.77V255.027H1439.13H1452.48V267.779H1465.84V280.53H1479.2V293.281H1492.55V306.033H1505.91V318.784H1519.26V331.536H1532.62V344.287H1545.98V357.038H1559.33V369.79H1572.69V382.541H1586.04V395.292H1599.4V408.044H1612.76V420.795H1626.11V433.547H1639.47V446.298H1652.83V459.049H1666.18V471.801H1679.54V484.552H1692.89V471.801H1706.25V459.049V446.298V433.547V420.795H1719.61V408.044V395.292V382.541H1732.96V369.79V357.038V344.287V331.536H1746.32V318.784V306.033H1732.96V293.281H1719.61V280.53H1706.25V267.779H1692.89V255.027H1679.54V242.276H1666.18V229.525H1652.83V216.773H1639.47V204.022H1626.11V191.271H1612.76V178.519H1599.4V165.768H1586.04V153.016H1572.69V140.265H1559.33V127.514H1545.98V114.762H1532.62V102.011H1519.26V89.2596H1505.91V76.5082H1492.55V63.7568H1479.2V51.0055H1465.84H1452.48H1439.13H1425.77V63.7568H1412.41H1399.06H1385.7H1372.35V76.5082H1358.99H1345.63H1332.28H1318.92V89.2596H1305.57H1292.21V102.011H1278.85V114.762V127.514V140.265H1265.5V153.016V165.768V178.519V191.271H1252.14V204.022V216.773V229.525V242.276V255.027H1265.5V267.779H1278.85V280.53H1292.21V293.281H1305.57V306.033H1318.92V318.784H1305.57V306.033H1292.21V293.281H1278.85V280.53H1265.5V267.779H1252.14V255.027H1238.78V242.276H1225.43H1212.07V229.525H1225.43H1238.78V216.773V204.022V191.271H1252.14V178.519V165.768V153.016V140.265H1265.5V127.514V114.762V102.011H1278.85V89.2596H1265.5H1252.14V76.5082H1265.5H1278.85H1292.21H1305.57H1318.92V63.7568H1332.28H1345.63H1358.99H1372.35V51.0055H1385.7H1399.06H1412.41H1425.77V38.2541H1439.13H1452.48V25.5027H1439.13V12.7514H1425.77ZM1385.7 25.5027H1372.35H1358.99H1345.63H1332.28V12.7514H1345.63H1358.99H1372.35H1385.7V25.5027ZM1332.28 38.2541H1318.92H1305.57H1292.21H1278.85V25.5027H1292.21H1305.57H1318.92H1332.28V38.2541ZM1278.85 51.0055H1265.5H1252.14H1238.78V38.2541H1252.14H1265.5H1278.85V51.0055ZM1238.78 51.0055V63.7568H1252.14V76.5082H1238.78H1225.43V63.7568H1212.07V76.5082V89.2596V102.011H1198.72V89.2596V76.5082V63.7568V51.0055H1212.07H1225.43H1238.78ZM1372.35 382.541V369.79H1358.99V357.038H1345.63V369.79H1358.99V382.541H1372.35ZM1452.48 280.53H1439.13V293.281H1452.48V306.033H1465.84V318.784H1479.2V331.536H1492.55V344.287H1505.91V357.038H1519.26V369.79H1532.62V382.541H1545.98V395.292H1559.33V408.044H1572.69V420.795H1586.04V433.547H1599.4V446.298H1612.76V459.049H1626.11V471.801H1639.47V484.552H1652.83V497.303H1666.18V510.055H1679.54V522.806H1692.89V510.055V497.303H1679.54V484.552H1666.18V471.801H1652.83V459.049H1639.47V446.298H1626.11V433.547H1612.76V420.795H1599.4V408.044H1586.04V395.292H1572.69V382.541H1559.33V369.79H1545.98V357.038H1532.62V344.287H1519.26V331.536H1505.91V318.784H1492.55V306.033H1479.2V293.281H1465.84V280.53H1452.48ZM1719.61 535.557V522.806H1706.25V535.557H1719.61ZM1185.36 114.762V102.011H1198.72V114.762V127.514V140.265V153.016H1185.36V140.265V127.514V114.762ZM1172 165.768V153.016H1185.36V165.768V178.519V191.271V204.022H1172V191.271V178.519V165.768ZM1158.65 216.773V204.022H1172V216.773H1158.65Z" fill="#36EBFF"/>
<path fill-rule="evenodd" clip-rule="evenodd" d="M1305.57 408.044V395.293H1318.92V408.044H1305.57ZM1292.21 395.293V382.541H1305.57V395.293H1292.21ZM1278.85 382.541V369.79H1292.21V382.541H1278.85ZM1265.5 369.79V357.039H1278.85V369.79H1265.5ZM1252.14 357.039V344.287H1265.5V357.039H1252.14ZM1238.79 344.287V331.536H1252.14V344.287H1238.79ZM1238.79 331.536H1225.43H1212.07V344.287V357.039V369.79V382.541H1198.72V395.293V408.044V420.796V433.547H1185.36V446.298V459.05V471.801H1172.01V484.552V497.304V510.055V522.807H1158.65V535.558V548.309V561.061V573.812H1145.29V586.563V599.315V612.066V624.817H1131.94V637.569V650.32V663.072H1118.58V675.823V688.574V701.326V714.077H1105.22V726.828V739.58V752.331V765.083H1091.87V777.834V790.585V803.337V816.088H1078.51V828.839V841.591V854.342H1065.16V867.094V879.845V892.596V905.348H1051.8V918.099V930.85V943.602V956.353H1038.44V969.104V981.856V994.607H1025.09V1007.36V1020.11V1032.86V1045.61H1011.73V1058.36V1071.12V1083.87V1096.62H998.375V1109.37V1122.12V1134.87V1147.62H985.019V1160.38V1173.13V1185.88H998.375V1198.63H1011.73V1211.38H1025.09V1224.13H1038.44V1236.88H1051.8V1249.63H1065.16H1078.51H1091.87H1105.22H1118.58V1262.39H1105.22H1091.87H1078.51V1275.14H1091.87V1287.89H1105.22H1118.58H1131.94H1145.29H1158.65V1275.14H1172.01H1185.36H1198.72V1262.39V1249.63H1185.36H1172.01V1236.88H1158.65V1249.63H1145.29H1131.94H1118.58V1236.88H1131.94H1145.29H1158.65V1224.13H1172.01V1211.38V1198.63V1185.88H1185.36V1173.13V1160.38V1147.62V1134.87H1198.72V1122.12V1109.37V1096.62H1212.07V1083.87V1071.12H1198.72H1185.36V1058.36H1198.72H1212.07V1045.61V1032.86H1198.72H1185.36H1172.01V1020.11H1185.36H1198.72H1212.07H1225.43V1007.36V994.607H1238.79V981.856V969.104V956.353V943.602H1252.14V930.85V918.099V905.348V892.596H1265.5V879.845V867.094V854.342V841.591H1278.85V828.839V816.088V803.337H1292.21V790.585V777.834V765.083V752.331H1305.57V739.58V726.828V714.077V701.326H1318.92V688.574V675.823V663.072V650.32H1332.28V637.569V624.817V612.066H1345.64V599.315V586.563V573.812V561.061H1358.99V548.309V535.558V522.807V510.055H1372.35V497.304V484.552V471.801V459.05H1385.7V446.298H1399.06V459.05H1385.7V471.801V484.552V497.304V510.055H1372.35V522.807V535.558V548.309V561.061H1358.99V573.812V586.563V599.315V612.066H1345.64V624.817V637.569V650.32H1332.28V663.072V675.823V688.574V701.326H1318.92V714.077V726.828V739.58V752.331H1305.57V765.083V777.834V790.585V803.337H1292.21V816.088V828.839V841.591H1278.85V854.342V867.094V879.845V892.596H1265.5V905.348V918.099V930.85V943.602H1252.14V956.353V969.104V981.856V994.607H1238.79V1007.36V1020.11H1252.14H1265.5V1032.86H1278.85H1292.21V1045.61H1305.57V1058.36V1071.12V1083.87H1292.21V1096.62V1109.37V1122.12V1134.87H1278.85V1147.62V1160.38V1173.13H1265.5V1185.88V1198.63V1211.38V1224.13H1252.14V1236.88V1249.63V1262.39H1238.79V1275.14H1225.43H1212.07H1198.72V1287.89H1185.36H1172.01H1158.65V1300.64H1145.29H1131.94H1118.58H1105.22H1091.87H1078.51V1287.89H1065.16H1051.8V1275.14H1038.44H1025.09V1262.39H1011.73V1249.63H998.375V1236.88H985.019V1224.13H971.663V1211.38H958.307V1198.63H944.95V1185.88H931.594V1173.13H918.238V1160.38H904.882V1147.62V1134.87V1122.12V1109.37H918.238V1096.62V1083.87V1071.12V1058.36H931.594V1045.61V1032.86V1020.11V1007.36H944.95V994.607V981.856V969.104V956.353H958.307V943.602V930.85V918.099H971.663V905.348V892.596V879.845V867.094H985.019V854.342V841.591V828.839V816.088H998.375V803.337V790.585V777.834V765.083H1011.73V752.331V739.58V726.828H1025.09V714.077V701.326V688.574V675.823H1038.44V663.072V650.32V637.569V624.817H1051.8V612.066V599.315V586.563H1065.16V573.812V561.061V548.309V535.558H1078.51V522.807V510.055V497.304V484.552H1091.87V471.801V459.05V446.298V433.547H1105.22V420.796V408.044V395.293H1118.58V382.541V369.79V357.039V344.287H1131.94V331.536V318.785V306.033V293.282H1145.29V280.531V267.779V255.028H1158.65H1172.01H1185.36V267.779H1198.72H1212.07V280.531H1225.43V293.282H1238.79V306.033H1225.43V318.785H1238.79V331.536ZM1198.72 306.033V293.282H1212.07V280.531H1198.72V293.282H1185.36V280.531H1172.01V267.779H1158.65V280.531V293.282H1145.29V306.033V318.785V331.536V344.287H1131.94V357.039V369.79V382.541V395.293H1118.58V408.044V420.796V433.547H1105.22V446.298V459.05V471.801V484.552H1091.87V497.304V510.055V522.807V535.558H1078.51V548.309V561.061V573.812V586.563H1065.16V599.315V612.066V624.817H1051.8V637.569V650.32V663.072V675.823H1038.44V688.574V701.326V714.077V726.828H1025.09V739.58V752.331V765.083H1011.73V777.834V790.585V803.337V816.088H998.375V828.839V841.591V854.342V867.094H985.019V879.845V892.596V905.348V918.099H971.663V930.85V943.602V956.353H958.307V969.104V981.856V994.607V1007.36H944.95V1020.11V1032.86V1045.61V1058.36H931.594V1071.12V1083.87V1096.62V1109.37H918.238V1122.12V1134.87V1147.62H931.594V1160.38H944.95H958.307H971.663V1147.62H985.019V1134.87V1122.12V1109.37V1096.62H998.375V1083.87V1071.12V1058.36V1045.61H1011.73V1032.86V1020.11V1007.36V994.607H1025.09V981.856V969.104V956.353H1038.44V943.602V930.85V918.099V905.348H1051.8V892.596V879.845V867.094V854.342H1065.16V841.591V828.839V816.088H1078.51V803.337V790.585V777.834V765.083H1091.87V752.331V739.58V726.828V714.077H1105.22V701.326V688.574V675.823V663.072H1118.58V650.32V637.569V624.817H1131.94V612.066V599.315V586.563V573.812H1145.29V561.061V548.309V535.558V522.807H1158.65V510.055V497.304V484.552V471.801H1172.01V459.05V446.298V433.547H1185.36V420.796V408.044V395.293V382.541H1198.72V369.79V357.039V344.287V331.536H1212.07V318.785V306.033H1198.72ZM1145.29 1032.86V1020.11V1007.36V994.607H1158.65V1007.36V1020.11V1032.86H1172.01V1045.61H1185.36V1058.36H1172.01H1158.65V1045.61H1145.29V1032.86ZM1158.65 994.607V981.856V969.104V956.353V943.602H1172.01V956.353V969.104V981.856V994.607H1158.65ZM1172.01 943.602V930.85V918.099V905.348H1185.36V918.099V930.85V943.602H1172.01ZM1185.36 905.348V892.596V879.845V867.094V854.342H1198.72V867.094V879.845V892.596V905.348H1185.36ZM1198.72 854.342V841.591V828.839V816.088V803.337H1212.07V816.088V828.839V841.591V854.342H1198.72ZM1212.07 803.337V790.585V777.834V765.083H1225.43V777.834V790.585V803.337H1212.07ZM1225.43 765.083V752.331V739.58V726.828V714.077H1238.79V726.828V739.58V752.331V765.083H1225.43ZM1238.79 714.077V701.326V688.574V675.823V663.072H1252.14V675.823V688.574V701.326V714.077H1238.79ZM1252.14 663.072V650.32V637.569V624.817V612.066H1265.5V624.817V637.569V650.32V663.072H1252.14ZM1265.5 612.066V599.315V586.563V573.812H1278.85V586.563V599.315V612.066H1265.5ZM1278.85 573.812V561.061V548.309V535.558V522.807H1292.21V535.558V548.309V561.061V573.812H1278.85ZM1292.21 522.807V510.055V497.304V484.552V471.801H1305.57V484.552V497.304V510.055V522.807H1292.21ZM1305.57 471.801V459.05V446.298V433.547V420.796H1318.92V433.547V446.298V459.05V471.801H1305.57ZM1358.99 446.298V433.547H1345.64H1332.28V420.796H1345.64V408.044H1332.28V420.796H1318.92V408.044H1332.28V395.293H1318.92V382.541H1305.57V369.79H1292.21V357.039H1278.85V344.287H1265.5V331.536H1252.14V318.785H1238.79V306.033H1252.14V318.785H1265.5V331.536H1278.85V344.287H1292.21V357.039H1305.57V369.79H1318.92V382.541H1332.28V395.293H1345.64V408.044H1358.99V420.796H1372.35V433.547H1385.7V446.298H1372.35H1358.99ZM1051.8 1262.39V1249.63H1038.44V1236.88H1025.09V1224.13H1011.73V1211.38H998.375V1198.63H985.019V1185.88H971.663V1173.13H958.307H944.95V1185.88H958.307V1198.63H971.663V1211.38H985.019V1224.13H998.375V1236.88H1011.73V1249.63H1025.09V1262.39H1038.44H1051.8ZM1238.79 1249.63V1236.88V1224.13H1252.14V1211.38V1198.63V1185.88V1173.13H1265.5V1160.38V1147.62V1134.87H1278.85V1122.12V1109.37V1096.62V1083.87H1292.21V1071.12V1058.36H1278.85H1265.5V1071.12H1252.14H1238.79H1225.43V1083.87V1096.62H1212.07V1109.37V1122.12V1134.87H1198.72V1147.62V1160.38V1173.13V1185.88H1185.36V1198.63V1211.38V1224.13V1236.88H1198.72V1249.63H1212.07H1225.43H1238.79ZM1225.43 1058.36H1238.79H1252.14H1265.5V1045.61V1032.86H1252.14H1238.79V1045.61H1225.43V1058.36Z" fill="#36EBFF"/>
<path fill-rule="evenodd" clip-rule="evenodd" d="M1238.79 1262.39V1249.64H1252.14H1265.5V1236.88V1224.13H1252.14H1238.79H1225.43H1212.07V1236.88H1225.43H1238.79V1249.64H1225.43H1212.07V1236.88H1198.72H1185.36V1224.13V1211.38H1198.72V1224.13H1212.07V1211.38H1225.43H1238.79H1252.14H1265.5V1198.63H1278.85V1185.88V1173.13V1160.38H1292.21V1173.13V1185.88V1198.63V1211.38H1305.57H1318.92V1224.13H1305.57H1292.21V1211.38H1278.85V1224.13V1236.88V1249.64H1292.21H1305.57V1236.88H1318.92V1224.13H1332.28H1345.63V1211.38V1198.63H1358.99V1185.88V1173.13V1160.38H1372.35V1147.62V1134.87V1122.12V1109.37H1385.7V1096.62V1083.87V1071.12V1058.36H1399.06V1045.61V1032.86H1385.7H1372.35V1045.61H1358.99H1345.63H1332.28V1058.36V1071.12H1318.92V1083.87V1096.62V1109.37V1122.12H1305.57V1134.87V1147.62V1160.38H1292.21V1147.62V1134.87V1122.12V1109.37H1305.57V1096.62V1083.87V1071.12H1318.92V1058.36V1045.61H1305.57V1032.86H1292.21H1278.85V1020.11H1265.5H1252.14V1032.86V1045.61V1058.36V1071.12H1238.79V1083.87V1096.62V1109.37V1122.12H1225.43V1134.87V1147.62V1160.38V1173.13H1212.07V1185.88V1198.63V1211.38H1198.72V1198.63V1185.88V1173.13H1212.07V1160.38V1147.62V1134.87V1122.12H1225.43V1109.37V1096.62V1083.87V1071.12H1238.79V1058.36V1045.61V1032.86V1020.11H1252.14V1007.36H1265.5H1278.85V994.608H1292.21H1305.57H1318.92H1332.28V981.857H1345.63V994.608H1358.99H1372.35V1007.36H1385.7H1399.06H1412.42V1020.11V1032.86V1045.61V1058.36H1399.06V1071.12V1083.87V1096.62V1109.37H1385.7V1122.12V1134.87V1147.62V1160.38H1372.35V1173.13V1185.88V1198.63H1358.99V1211.38V1224.13V1236.88H1345.63V1249.64H1332.28H1318.92H1305.57V1262.39H1292.21H1278.85H1265.5H1252.14H1238.79ZM1332.28 1032.86H1345.63H1358.99H1372.35V1020.11V1007.36H1358.99H1345.63V1020.11H1332.28V1032.86ZM1318.92 1032.86V1020.11H1332.28V1007.36H1318.92H1305.57H1292.21H1278.85V1020.11H1292.21H1305.57V1032.86H1318.92Z" fill="#36EBFF"/>
<path fill-rule="evenodd" clip-rule="evenodd" d="M1358.99 1236.88V1224.13H1372.35V1211.38V1198.63V1185.88H1358.99V1173.13H1372.35H1385.7V1160.38V1147.62V1134.87H1399.06V1122.12V1109.37V1096.62V1083.87H1412.42V1071.12V1058.36V1045.61H1425.77V1032.86V1020.11H1412.42V1007.36H1399.06H1385.7V994.607H1372.35V1007.36H1358.99V1020.11V1032.86V1045.61H1345.63V1058.36V1071.12V1083.87V1096.62H1332.28V1109.37V1122.12V1134.87V1147.62H1318.92V1160.38V1173.13V1185.88H1332.28H1345.63H1358.99V1198.63H1345.63H1332.28H1318.92V1185.88H1305.57V1198.63H1318.92V1211.38H1332.28H1345.63H1358.99V1224.13H1345.63H1332.28H1318.92V1211.38H1305.57V1198.63H1292.21V1185.88H1305.57V1173.13V1160.38V1147.62H1318.92V1134.87V1122.12V1109.37V1096.62H1332.28V1083.87V1071.12V1058.36V1045.61H1345.63V1032.86V1020.11V1007.36H1358.99V994.607V981.856H1372.35V969.105H1385.7H1399.06H1412.42H1425.77V981.856H1412.42H1399.06H1385.7V994.607H1399.06H1412.42V1007.36H1425.77H1439.13V994.607V981.856H1452.48V969.105H1439.13H1425.77V956.353H1439.13H1452.48H1465.84H1479.2V969.105H1465.84V981.856H1452.48V994.607V1007.36H1465.84V994.607H1479.2H1492.55H1505.91V981.856H1492.55H1479.2V969.105H1492.55H1505.91V981.856H1519.26H1532.62V994.607V1007.36V1020.11H1519.26V1032.86V1045.61V1058.36V1071.12H1505.91V1083.87V1096.62V1109.37V1122.12H1492.55V1134.87V1147.62V1160.38V1173.13H1479.2V1185.88V1198.63V1211.38H1465.84H1452.48V1224.13H1439.13H1425.77H1412.42H1399.06V1236.88H1385.7H1372.35H1358.99ZM1385.7 1185.88V1198.63V1211.38V1224.13H1399.06V1211.38H1412.42H1425.77H1439.13H1452.48V1198.63H1465.84V1185.88V1173.13H1479.2V1160.38V1147.62V1134.87V1122.12H1492.55V1109.37V1096.62V1083.87V1071.12H1505.91V1058.36V1045.61V1032.86V1020.11H1519.26V1007.36H1505.91H1492.55H1479.2H1465.84V1020.11H1452.48V1032.86H1439.13V1045.61V1058.36V1071.12V1083.87H1425.77V1096.62V1109.37V1122.12V1134.87H1412.42V1147.62V1160.38V1173.13H1425.77V1185.88H1439.13H1452.48V1198.63H1439.13H1425.77V1185.88H1412.42H1399.06H1385.7Z" fill="#36EBFF"/>
<path fill-rule="evenodd" clip-rule="evenodd" d="M1492.55 1198.63V1185.88H1505.91V1173.13H1519.27V1160.37H1505.91H1492.55H1479.2H1465.84V1147.62H1479.2H1492.55H1505.91H1519.27V1134.87H1532.62V1122.12V1109.37V1096.62V1083.87H1545.98V1071.12V1058.36V1045.61V1032.86H1559.33V1020.11V1007.36V994.607V981.856H1545.98V969.104H1532.62H1519.27V956.353H1505.91V969.104V981.856V994.607H1492.55V1007.36V1020.11V1032.86V1045.61H1479.2V1058.36V1071.12V1083.87V1096.62H1465.84V1109.37V1122.12V1134.87H1452.49V1147.62V1160.37H1465.84V1173.13H1479.2H1492.55V1185.88H1479.2H1465.84V1173.13H1452.49H1439.13V1160.37V1147.62V1134.87H1452.49V1122.12V1109.37V1096.62H1465.84V1083.87V1071.12V1058.36V1045.61H1479.2V1032.86V1020.11V1007.36V994.607H1492.55V981.856V969.104V956.353V943.602H1505.91H1519.27H1532.62V956.353H1545.98V969.104H1559.33H1572.69H1586.05H1599.4H1612.76V956.353V943.602V930.85H1599.4H1586.05H1572.69V943.602H1559.33H1545.98H1532.62V930.85H1545.98H1559.33H1572.69V918.099H1586.05H1599.4H1612.76H1626.12H1639.47H1652.83V930.85H1639.47H1626.12V943.602V956.353H1639.47H1652.83H1666.18V943.602H1652.83V930.85H1666.18H1679.54H1692.9V943.602H1706.25V956.353V969.104H1692.9V981.856V994.607V1007.36H1679.54V1020.11V1032.86V1045.61V1058.36H1666.18V1071.12V1083.87V1096.62V1109.37H1652.83V1122.12V1134.87V1147.62V1160.37H1639.47V1147.62V1134.87V1122.12V1109.37H1652.83V1096.62V1083.87V1071.12V1058.36H1666.18V1045.61V1032.86V1020.11V1007.36H1679.54V994.607V981.856V969.104H1692.9V956.353H1679.54H1666.18V969.104H1652.83H1639.47H1626.12H1612.76V981.856V994.607V1007.36V1020.11H1599.4V1007.36V994.607V981.856H1586.05H1572.69V994.607V1007.36V1020.11V1032.86H1559.33V1045.61V1058.36V1071.12V1083.87H1545.98V1096.62V1109.37V1122.12V1134.87H1559.33V1147.62H1545.98H1532.62V1160.37V1173.13H1519.27V1185.88H1532.62H1545.98H1559.33V1198.63H1545.98H1532.62H1519.27H1505.91H1492.55ZM1559.33 1185.88V1173.13H1572.69H1586.05H1599.4V1185.88H1586.05H1572.69H1559.33ZM1599.4 1173.13V1160.37V1147.62H1612.76H1626.12V1160.37H1639.47V1173.13H1626.12H1612.76H1599.4ZM1599.4 1147.62H1586.05H1572.69V1134.87H1586.05H1599.4V1147.62ZM1586.05 1032.86V1020.11H1599.4V1032.86V1045.61V1058.36V1071.12H1586.05V1058.36V1045.61V1032.86ZM1572.69 1083.87V1071.12H1586.05V1083.87V1096.62V1109.37H1572.69V1096.62V1083.87ZM1559.33 1122.12V1109.37H1572.69V1122.12V1134.87H1559.33V1122.12Z" fill="#36EBFF"/>
<path fill-rule="evenodd" clip-rule="evenodd" d="M1679.54 1122.12H1666.18H1652.83V1109.37V1096.62V1083.87H1666.18V1071.11V1058.36V1045.61V1032.86H1679.54V1020.11V1007.36V994.606H1692.89V981.855V969.104V956.352V943.601H1706.25V930.849V918.098V905.347V892.595H1719.61V879.844H1732.96H1746.32H1759.68H1773.03V867.093H1786.39H1799.74H1813.1H1826.46V854.341H1839.81H1853.17H1866.52H1879.88V841.59H1893.24H1906.59H1919.95V828.839H1933.31H1946.66H1960.02H1973.37V816.087V803.336H1960.02V790.584H1946.66V777.833H1933.31V765.082H1919.95V752.33H1906.59V739.579H1893.24V726.828H1879.88V714.076H1866.52V701.325H1853.17V688.573H1839.81V675.822H1826.46V663.071H1813.1V650.319H1799.74V637.568H1786.39V624.817V612.065V599.314H1799.74V586.562V573.811V561.06V548.308H1813.1V535.557V522.806V510.054V497.303H1826.46V484.552V471.8V459.049V446.297H1839.81V433.546V420.795V408.043H1853.17H1866.52H1879.88V420.795H1893.24H1906.59V433.546H1919.95V446.297H1933.31V459.049H1919.95V471.8H1933.31V484.552H1946.66V497.303H1960.02V510.054H1973.37V522.806H1986.73V535.557H2000.09V548.308H2013.44V561.06H2026.8V573.811H2040.15V586.562H2053.51V599.314H2066.87V612.065H2080.22V624.817H2093.58V637.568H2106.94V650.319H2120.29V663.071H2133.65V675.822H2147V688.573H2160.36V701.325H2173.72V714.076H2187.07V726.828H2200.43V739.579H2213.78V752.33H2227.14V765.082H2240.5V777.833H2253.85V790.584H2240.5V777.833H2227.14V765.082H2213.78V752.33H2200.43V739.579H2187.07V726.828H2173.72V714.076H2160.36V701.325H2147V688.573H2133.65V675.822H2120.29V663.071H2106.94V650.319H2093.58V637.568H2080.22V624.817H2066.87V612.065H2053.51V599.314H2040.15V586.562H2026.8V573.811H2013.44V561.06H2000.09V548.308H1986.73V535.557H1973.37V522.806H1960.02V510.054H1946.66V497.303H1933.31V484.552H1919.95H1906.59V497.303V510.054V522.806V535.557H1893.24V548.308V561.06V573.811V586.562H1879.88V599.314V612.065V624.817V637.568H1866.52V650.319V663.071H1879.88V675.822H1893.24V688.573H1906.59V701.325H1919.95V714.076H1933.31V726.828H1946.66V739.579H1960.02V752.33H1973.37V765.082H1986.73V777.833H2000.09V790.584H2013.44V803.336H2026.8V816.087H2040.15V828.839H2053.51V841.59H2066.87V854.341V867.093H2053.51H2040.15H2026.8H2013.44V879.844H2000.09H1986.73H1973.37H1960.02V892.595H1946.66H1933.31H1919.95V905.347H1906.59H1893.24H1879.88H1866.52V918.098H1853.17H1839.81H1826.46H1813.1V930.849H1799.74H1786.39V943.601V956.352V969.104V981.855H1773.03V994.606V1007.36V1020.11V1032.86H1759.68V1045.61V1058.36V1071.11H1773.03H1786.39H1799.74H1813.1V1083.87H1799.74H1786.39H1773.03H1759.68V1096.62H1746.32V1109.37V1122.12H1732.96V1134.87H1746.32H1759.68V1122.12H1773.03H1786.39H1799.74V1109.37H1813.1H1826.46H1839.81H1853.17V1096.62H1866.52H1879.88H1893.24H1906.59V1083.87H1919.95H1933.31H1946.66V1071.11H1960.02H1973.37H1986.73H2000.09V1058.36H2013.44H2026.8H2040.15H2053.51V1045.61H2066.87H2080.22H2093.58H2106.94V1032.86H2120.29H2133.65H2147V1020.11H2160.36H2173.72H2187.07H2200.43V1007.36H2213.78H2227.14H2240.5H2253.85V994.606H2240.5V981.855H2227.14H2213.78H2200.43H2187.07H2173.72H2160.36V994.606H2147H2133.65H2120.29H2106.94V1007.36H2093.58H2080.22H2066.87V1020.11H2053.51H2040.15H2026.8H2013.44V1032.86H2000.09H1986.73H1973.37H1960.02V1045.61H1946.66H1933.31H1919.95H1906.59V1058.36H1893.24H1879.88H1866.52V1071.11H1853.17H1839.81H1826.46H1813.1V1058.36H1826.46H1839.81H1853.17H1866.52V1045.61H1879.88H1893.24H1906.59V1032.86H1919.95H1933.31H1946.66H1960.02V1020.11H1973.37H1986.73H2000.09H2013.44V1007.36H2026.8H2040.15H2053.51H2066.87V994.606H2080.22H2093.58H2106.94V981.855H2120.29H2133.65H2147H2160.36V969.104H2173.72H2187.07H2200.43H2213.78V956.352V943.601V930.849V918.098H2227.14V930.849V943.601V956.352V969.104H2240.5V981.855H2253.85H2267.21V994.606H2280.57V1007.36H2267.21H2253.85V1020.11H2240.5H2227.14H2213.78H2200.43V1032.86H2187.07H2173.72H2160.36H2147V1045.61H2133.65H2120.29H2106.94V1058.36H2093.58H2080.22H2066.87H2053.51V1071.11H2040.15H2026.8H2013.44H2000.09V1083.87H1986.73H1973.37H1960.02H1946.66V1096.62H1933.31H1919.95H1906.59V1109.37H1893.24H1879.88H1866.52H1853.17V1122.12H1839.81H1826.46H1813.1H1799.74V1134.87H1786.39H1773.03H1759.68V1147.62H1746.32H1732.96H1719.61V1134.87H1706.25H1692.89H1679.54V1122.12ZM1679.54 1109.37V1122.12H1692.89H1706.25H1719.61H1732.96V1109.37V1096.62H1719.61V1109.37H1706.25H1692.89H1679.54ZM1893.24 459.049V446.297H1906.59V433.546H1893.24V446.297H1879.88V433.546H1866.52V420.795H1853.17V433.546V446.297H1839.81V459.049V471.8V484.552V497.303H1826.46V510.054V522.806V535.557V548.308H1813.1V561.06V573.811V586.562V599.314H1799.74V612.065V624.817H1813.1V637.568H1826.46H1839.81V650.319H1826.46V663.071H1839.81V675.822H1853.17V688.573H1866.52V701.325H1879.88V714.076H1893.24V726.828H1906.59V739.579H1919.95V752.33H1933.31V765.082H1946.66V777.833H1960.02V790.584H1973.37V803.336H1986.73V816.087H2000.09H2013.44V803.336H2000.09V790.584H1986.73V777.833H1973.37V765.082H1960.02V752.33H1946.66V739.579H1933.31V726.828H1919.95V714.076H1906.59V701.325H1893.24V688.573H1879.88V675.822H1866.52V663.071H1853.17H1839.81V650.319H1853.17V637.568H1866.52V624.817V612.065V599.314V586.562H1879.88V573.811V561.06V548.308V535.557H1893.24V522.806V510.054V497.303V484.552H1906.59V471.8V459.049H1893.24ZM2227.14 918.098V905.347V892.595V879.844V867.093H2240.5V879.844V892.595V905.347V918.098H2227.14ZM2240.5 867.093V854.341V841.59V828.839H2253.85V841.59V854.341V867.093H2240.5ZM2253.85 828.839V816.087V803.336V790.584H2267.21V803.336H2280.57V790.584H2267.21V777.833H2253.85V765.082H2240.5V752.33H2227.14V739.579H2213.78V726.828H2200.43V714.076H2187.07V701.325H2173.72V688.573H2160.36V675.822H2147V663.071H2133.65V650.319H2120.29V637.568H2106.94V624.817H2093.58V612.065H2080.22V599.314H2066.87V586.562H2053.51V573.811H2040.15V561.06H2026.8V548.308H2013.44V535.557H2000.09V522.806H1986.73V510.054H1973.37V497.303H1960.02V484.552H1946.66V471.8H1933.31V459.049H1946.66V471.8H1960.02V484.552H1973.37V497.303H1986.73V510.054H2000.09V522.806H2013.44V535.557H2026.8V548.308H2040.15V561.06H2053.51V573.811H2066.87V586.562H2080.22V599.314H2093.58V612.065H2106.94V624.817H2120.29V637.568H2133.65V650.319H2147V663.071H2160.36V675.822H2173.72V688.573H2187.07V701.325H2200.43V714.076H2213.78V726.828H2227.14V739.579H2240.5V752.33H2253.85V765.082H2267.21V777.833H2280.57V790.584H2293.92V803.336H2307.28V816.087H2320.63V828.839H2307.28H2293.92V816.087H2280.57H2267.21V828.839H2253.85ZM1666.18 1096.62H1679.54H1692.89H1706.25H1719.61V1083.87H1732.96V1071.11H1746.32V1083.87H1759.68V1071.11H1746.32V1058.36V1045.61V1032.86H1759.68V1020.11V1007.36V994.606V981.855H1773.03V969.104V956.352V943.601V930.849V918.098H1786.39H1799.74H1813.1V905.347H1826.46H1839.81H1853.17H1866.52V892.595H1879.88H1893.24H1906.59H1919.95V879.844H1933.31H1946.66H1960.02V867.093H1973.37H1986.73H2000.09H2013.44V854.341H2026.8H2040.15V841.59H2026.8H2013.44V828.839H2000.09H1986.73H1973.37V841.59H1960.02H1946.66H1933.31H1919.95V854.341H1906.59H1893.24H1879.88V867.093H1866.52H1853.17H1839.81H1826.46V879.844H1813.1H1799.74H1786.39H1773.03V892.595H1759.68H1746.32V905.347H1759.68H1773.03V918.098H1759.68H1746.32V905.347H1732.96H1719.61V918.098V930.849V943.601H1706.25V956.352V969.104V981.855V994.606H1692.89V1007.36V1020.11V1032.86H1679.54V1045.61V1058.36V1071.11V1083.87H1666.18V1096.62ZM2320.63 854.341V841.59V828.839H2333.99V841.59V854.341V867.093H2320.63V854.341ZM2307.28 879.844V867.093H2320.63V879.844V892.595V905.347H2307.28V892.595V879.844ZM2293.92 918.098V905.347H2307.28V918.098V930.849V943.601V956.352H2293.92V943.601V930.849V918.098ZM2280.57 969.104V956.352H2293.92V969.104V981.855V994.606H2280.57V981.855V969.104ZM2026.8 828.839V816.087H2013.44V828.839H2026.8Z" fill="#36EBFF"/>
<path fill-rule="evenodd" clip-rule="evenodd" d="M232.247 1660.99L552.474 1574.76C572.746 1640.35 612.981 1697.77 666.463 1740.59C728.933 1790.62 809.477 1820.74 897.391 1820.74C1095.97 1820.74 1256.96 1667.04 1256.96 1477.44C1256.96 1371.78 1206.96 1277.27 1128.32 1214.29C1065.85 1164.27 985.304 1134.14 897.391 1134.14C729.14 1134.14 587.878 1244.48 548.648 1393.5L475.196 1413.28L507.948 1259.08C514.923 1227.05 513.608 1194.79 504.012 1162.3C491.383 1119.56 468.407 1084.85 435.084 1058.16C424.188 1049.44 412.191 1041.58 399.085 1034.57C346.188 1006.05 290.189 999.746 231.085 1015.66C172.279 1031.5 128.066 1065.1 98.4454 1116.46C68.7402 1167.53 62.181 1221.13 78.7677 1277.28C89.4603 1313.47 108.033 1344.16 134.485 1369.34C138.837 1373.49 143.353 1377.43 148.033 1381.18C171.798 1400.21 199.788 1414.12 232.005 1422.93L270.959 1268.45C266.735 1266.34 262.996 1263.98 259.743 1261.37C252.514 1255.57 247.68 1248.55 245.242 1240.3C242.126 1229.75 243.462 1219.54 249.249 1209.68C255.249 1199.45 263.772 1192.85 274.817 1189.87C292.762 1185.04 306.395 1186.36 315.715 1193.83C321.123 1198.16 325.079 1204.57 327.583 1213.04C330.277 1222.16 330.327 1232.15 327.732 1243L324.552 1256.78L232.247 1660.99ZM1079.67 1272.92C1140.76 1321.88 1179.59 1395.33 1179.59 1477.44C1179.59 1624.85 1054.43 1744.35 900.035 1744.35C831.642 1744.35 768.985 1720.9 720.405 1681.96C659.314 1633 620.477 1559.55 620.477 1477.44C620.477 1330.03 745.641 1210.54 900.035 1210.54C968.429 1210.54 1031.09 1233.98 1079.67 1272.92Z" fill="#C7C7C7"/>
<path d="M164.571 962.378C105.766 978.215 61.5523 1011.81 31.9316 1063.17L98.4461 1116.46C128.067 1065.1 172.28 1031.5 231.085 1015.67L164.571 962.378Z" fill="#C7C7C7"/>
<path d="M31.9325 1063.17C2.22762 1114.24 -4.33159 1167.85 12.2549 1224L78.7693 1277.28C62.1826 1221.14 68.7418 1167.53 98.447 1116.46L31.9325 1063.17Z" fill="#C7C7C7"/>
<path d="M332.574 981.284C279.677 952.762 223.677 946.46 164.573 962.377L231.087 1015.66C290.191 999.748 346.19 1006.05 399.087 1034.57L332.574 981.284Z" fill="#C7C7C7"/>
<path d="M12.2549 1224C22.9477 1260.19 41.5203 1290.88 67.9726 1316.06L134.487 1369.35C108.035 1344.16 89.462 1313.48 78.7693 1277.28L12.2549 1224Z" fill="#C7C7C7"/>
<path d="M368.571 1004.88C357.675 996.156 345.678 988.292 332.573 981.285L399.086 1034.57C412.192 1041.58 424.189 1049.44 435.084 1058.17L368.571 1004.88Z" fill="#C7C7C7"/>
<path d="M67.9712 1316.06C72.3233 1320.2 76.8394 1324.15 81.5194 1327.89L147.928 1381.09C143.286 1377.37 138.805 1373.46 134.486 1369.34L67.9712 1316.06Z" fill="#C7C7C7"/>
<path d="M208.303 1136.59C226.248 1131.75 239.883 1133.07 249.203 1140.54L315.707 1193.83C306.387 1186.36 292.756 1185.04 274.816 1189.87C263.772 1192.85 255.249 1199.45 249.249 1209.68L249.245 1209.68C243.459 1219.54 242.129 1229.75 245.245 1240.3C247.683 1248.55 252.517 1255.58 259.745 1261.37L193.228 1208.08C186 1202.29 181.166 1195.26 178.728 1187.01C175.612 1176.46 176.949 1166.26 182.735 1156.39L183.89 1154.52C189.811 1145.35 197.949 1139.37 208.303 1136.59Z" fill="url(#paint0_linear_127_1799)"/>
<path d="M315.706 1193.82L313.56 1196.27C314.973 1197.4 317.079 1197.22 318.264 1195.87C319.449 1194.52 319.265 1192.51 317.852 1191.38L315.706 1193.82ZM249.248 1209.68L246.887 1211.93C247.626 1212.64 248.67 1212.98 249.705 1212.84C250.742 1212.7 251.65 1212.11 252.161 1211.24L249.248 1209.68ZM249.245 1209.68L251.606 1207.42C250.866 1206.72 249.823 1206.38 248.787 1206.52C247.751 1206.66 246.842 1207.25 246.331 1208.12L249.245 1209.68ZM259.744 1261.37L257.598 1263.81C259.011 1264.94 261.117 1264.77 262.302 1263.42C263.487 1262.07 263.304 1260.06 261.891 1258.93L259.744 1261.37ZM182.735 1156.39L179.855 1154.78C179.843 1154.8 179.832 1154.82 179.821 1154.84L182.735 1156.39ZM183.889 1154.52L181.047 1152.84C181.034 1152.86 181.022 1152.88 181.009 1152.9L183.889 1154.52ZM208.302 1136.59L209.209 1139.65C226.682 1134.95 238.963 1136.5 247.056 1142.98L249.202 1140.54L251.349 1138.1C240.801 1129.65 225.813 1128.56 207.396 1133.52L208.302 1136.59ZM249.202 1140.54L247.056 1142.98L313.56 1196.27L315.706 1193.82L317.852 1191.38L251.349 1138.1L249.202 1140.54ZM315.706 1193.82L317.852 1191.38C307.305 1182.93 292.321 1181.85 273.909 1186.8L274.816 1189.87L275.722 1192.94C293.19 1188.24 305.468 1189.79 313.56 1196.27L315.706 1193.82ZM274.816 1189.87L273.909 1186.8C261.948 1190.02 252.734 1197.21 246.335 1208.13L249.248 1209.68L252.161 1211.24C257.763 1201.69 265.595 1195.67 275.722 1192.94L274.816 1189.87ZM249.248 1209.68L251.609 1207.43L251.606 1207.42L249.245 1209.68L246.884 1211.93L246.887 1211.93L249.248 1209.68ZM249.245 1209.68L246.331 1208.12C240.128 1218.7 238.667 1229.78 242.03 1241.16L245.244 1240.3L248.457 1239.43C245.591 1229.73 246.79 1220.39 252.158 1211.24L249.245 1209.68ZM245.244 1240.3L242.03 1241.16C244.66 1250.06 249.884 1257.63 257.598 1263.81L259.744 1261.37L261.891 1258.93C255.149 1253.52 250.705 1247.04 248.457 1239.43L245.244 1240.3ZM259.744 1261.37L261.891 1258.93L195.374 1205.64L193.228 1208.08L191.081 1210.52L257.598 1263.81L259.744 1261.37ZM193.228 1208.08L195.374 1205.64C188.631 1200.24 184.188 1193.75 181.941 1186.14L178.727 1187.01L175.513 1187.87C178.143 1196.78 183.367 1204.34 191.081 1210.52L193.228 1208.08ZM178.727 1187.01L181.941 1186.14C179.074 1176.44 180.279 1167.11 185.648 1157.95L182.735 1156.39L179.821 1154.84C173.618 1165.41 172.149 1176.49 175.513 1187.87L178.727 1187.01ZM182.735 1156.39L185.614 1158.01L186.768 1156.13L183.889 1154.52L181.009 1152.9L179.855 1154.78L182.735 1156.39ZM183.889 1154.52L186.731 1156.19C192.236 1147.67 199.702 1142.21 209.209 1139.65L208.302 1136.59L207.396 1133.52C196.194 1136.53 187.384 1143.04 181.047 1152.84L183.889 1154.52Z" fill="#262626"/>
<path d="M204.445 1215.16C200.23 1213.05 196.498 1210.7 193.249 1208.1L259.743 1261.37C262.997 1263.98 266.736 1266.33 270.96 1268.44L204.445 1215.16Z" fill="#C7C7C7"/>
<path d="M249.2 1140.54C254.608 1144.88 258.565 1151.28 261.069 1159.76L327.583 1213.05C325.079 1204.57 321.123 1198.16 315.715 1193.83L249.2 1140.54Z" fill="#C7C7C7"/>
<path d="M261.07 1159.76C263.765 1168.88 263.814 1178.86 261.22 1189.72L327.734 1243C330.329 1232.15 330.279 1222.16 327.585 1213.05L261.07 1159.76Z" fill="#C7C7C7"/>
<path d="M81.5195 1327.89C105.284 1346.92 133.275 1360.83 165.491 1369.64L232.006 1422.92C199.789 1414.12 171.799 1400.2 148.034 1381.18L81.5195 1327.89Z" fill="url(#paint1_linear_127_1799)" stroke="#262626" stroke-width="2" stroke-linejoin="round"/>
<path d="M261.219 1189.72L258.039 1203.5L324.553 1256.78L327.733 1243L261.219 1189.72Z" fill="#C7C7C7"/>
<path d="M165.491 1369.64L204.445 1215.16L270.96 1268.45L232.006 1422.93L165.491 1369.64Z" fill="url(#paint2_linear_127_1799)" stroke="#262626" stroke-width="2" stroke-linejoin="round"/>
<path d="M258.04 1203.5L165.734 1607.71L232.249 1661L324.554 1256.78L258.04 1203.5Z" fill="#C7C7C7"/>
<path d="M435.082 1058.16C468.409 1084.85 491.385 1119.56 504.013 1162.31C513.609 1194.8 514.925 1227.05 507.953 1259.08L475.197 1413.27L408.683 1359.99L441.439 1205.8C448.411 1173.77 447.096 1141.51 437.499 1109.02C424.881 1066.31 401.932 1031.62 368.655 1004.95L435.082 1058.16Z" fill="url(#paint3_linear_127_1799)"/>
<path d="M507.952 1259.08L504.68 1258.44L504.677 1258.45L507.952 1259.08ZM475.196 1413.28L473.049 1415.72C473.951 1416.44 475.186 1416.66 476.298 1416.29C477.41 1415.92 478.235 1415.01 478.469 1413.91L475.196 1413.28ZM408.683 1359.99L405.41 1359.36C405.167 1360.5 405.601 1361.68 406.536 1362.43L408.683 1359.99ZM441.439 1205.8L438.17 1205.15L438.166 1205.16L441.439 1205.8ZM368.654 1004.95L370.801 1002.51C369.389 1001.38 367.282 1001.55 366.096 1002.9C364.911 1004.25 365.095 1006.26 366.507 1007.39L368.654 1004.95ZM435.081 1058.17L432.934 1060.61C465.707 1086.85 488.339 1121 500.797 1163.17L504.012 1162.31L507.224 1161.44C494.429 1118.13 471.103 1082.85 437.228 1055.73L435.081 1058.17ZM504.012 1162.31L500.797 1163.17C510.256 1195.18 511.542 1226.93 504.68 1258.44L507.952 1259.08L511.221 1259.73C518.307 1227.19 516.964 1194.41 507.224 1161.44L504.012 1162.31ZM507.952 1259.08L504.677 1258.45L471.924 1412.65L475.196 1413.28L478.469 1413.91L511.225 1259.72L507.952 1259.08ZM475.196 1413.28L477.343 1410.83L410.83 1357.55L408.683 1359.99L406.536 1362.43L473.049 1415.72L475.196 1413.28ZM408.683 1359.99L411.955 1360.62L444.711 1206.43L441.439 1205.8L438.166 1205.16L405.41 1359.36L408.683 1359.99ZM441.439 1205.8L444.708 1206.45C451.793 1173.9 450.451 1141.12 440.711 1108.16L437.499 1109.02L434.283 1109.89C443.743 1141.9 445.028 1173.64 438.17 1205.15L441.439 1205.8ZM437.499 1109.02L440.711 1108.16C427.926 1064.88 404.629 1029.62 370.801 1002.51L368.654 1004.95L366.507 1007.39C399.236 1033.62 421.835 1067.75 434.283 1109.89L437.499 1109.02ZM368.654 1004.95L366.507 1007.39L432.934 1060.61L435.081 1058.17L437.228 1055.73L370.801 1002.51L368.654 1004.95Z" fill="#262626"/>
<path d="M482.136 1340.21L408.684 1359.99L475.197 1413.28L548.65 1393.5L482.136 1340.21Z" fill="#C7C7C7"/>
<path d="M165.734 1607.71L485.962 1521.47L552.476 1574.76L232.249 1660.99L165.734 1607.71Z" fill="#C7C7C7" stroke="#262626" stroke-width="2" stroke-linejoin="round"/>
<path d="M830.879 1080.86C662.625 1080.86 521.363 1191.19 482.136 1340.21L548.65 1393.5C587.88 1244.48 729.142 1134.15 897.393 1134.15L830.879 1080.86Z" fill="#C7C7C7"/>
<path d="M1061.81 1161.01C999.34 1110.98 918.793 1080.86 830.879 1080.86L897.393 1134.15C985.306 1134.15 1065.85 1164.27 1128.32 1214.29L1061.81 1161.01Z" fill="#C7C7C7"/>
<path d="M485.962 1521.47C506.23 1587.06 546.465 1644.48 599.95 1687.31L666.34 1740.5C612.919 1697.68 572.73 1640.3 552.476 1574.76L485.962 1521.47Z" fill="#C7C7C7"/>
<path d="M833.522 1157.25C901.915 1157.25 964.569 1180.7 1013.15 1219.63L1079.58 1272.86C1031.01 1233.96 968.389 1210.54 900.036 1210.54C745.642 1210.54 620.478 1330.04 620.478 1477.44C620.478 1559.55 659.314 1633 720.405 1681.96L653.888 1628.68C592.797 1579.72 553.964 1506.27 553.964 1424.16C553.967 1276.75 679.128 1157.25 833.522 1157.25Z" fill="url(#paint4_linear_127_1799)"/>
<path d="M833.523 1691.06C765.169 1691.06 702.545 1667.64 653.976 1628.75L720.406 1681.96C768.986 1720.9 831.643 1744.35 900.036 1744.35L833.523 1691.06Z" fill="#C7C7C7"/>
<path d="M1013.15 1219.64C1074.24 1268.6 1113.08 1342.05 1113.08 1424.16L1179.59 1477.44C1179.59 1395.34 1140.76 1321.88 1079.67 1272.92L1013.15 1219.64Z" fill="#C7C7C7"/>
<path d="M833.522 1694.25C776.054 1694.25 722.586 1677.89 677.953 1649.78L744.467 1703.07C789.1 1731.18 842.568 1747.54 900.036 1747.54L833.522 1694.25Z" fill="#C7C7C7"/>
<path d="M1116.42 1424.16C1116.42 1405.51 1114.44 1387.31 1110.67 1369.72L1177.19 1423.01C1180.95 1440.59 1182.93 1458.8 1182.93 1477.44L1116.42 1424.16Z" fill="#C7C7C7"/>
<path d="M1113.08 1424.15C1113.08 1571.56 987.917 1691.06 833.523 1691.06L900.037 1744.35C1054.43 1744.35 1179.6 1624.85 1179.6 1477.44L1113.08 1424.15Z" fill="#C7C7C7"/>
<path d="M833.523 1694.25C989.764 1694.25 1116.42 1573.33 1116.42 1424.16L1182.93 1477.44C1182.93 1626.61 1056.28 1747.54 900.037 1747.54L833.523 1694.25Z" fill="#C7C7C7"/>
<path d="M1128.32 1214.3C1206.96 1277.27 1256.96 1371.78 1256.96 1477.44C1256.96 1667.04 1095.97 1820.74 897.391 1820.74C809.477 1820.74 728.933 1790.62 666.463 1740.59L599.949 1687.3C662.419 1737.33 742.964 1767.45 830.877 1767.45L835.525 1767.42C1031.97 1765.05 1190.45 1612.27 1190.45 1424.15C1190.45 1318.54 1140.49 1224.07 1061.92 1161.1L1128.32 1214.3Z" fill="url(#paint5_linear_127_1799)"/>
<path d="M1128.32 1214.3C1206.96 1277.27 1256.96 1371.78 1256.96 1477.44C1256.96 1667.04 1095.97 1820.74 897.391 1820.74C809.477 1820.74 728.933 1790.62 666.463 1740.59L599.949 1687.3C662.419 1737.33 742.964 1767.45 830.877 1767.45L835.525 1767.42C1031.97 1765.05 1190.45 1612.27 1190.45 1424.15C1190.45 1318.54 1140.49 1224.07 1061.92 1161.1L1128.32 1214.3Z" fill="url(#paint6_linear_127_1799)"/>
<path d="M1128.32 1214.3L1126.18 1216.74H1126.18L1128.32 1214.3ZM599.949 1687.31L602.096 1684.87C600.683 1683.73 598.576 1683.91 597.391 1685.26C596.206 1686.61 596.389 1688.62 597.802 1689.75L599.949 1687.31ZM830.877 1767.46V1770.64H830.897L830.877 1767.46ZM835.525 1767.43L835.545 1770.61H835.565L835.525 1767.43ZM1061.92 1161.1L1064.07 1158.66C1062.65 1157.53 1060.55 1157.7 1059.36 1159.05C1058.18 1160.4 1058.36 1162.41 1059.77 1163.54L1061.92 1161.1ZM1128.32 1214.3L1126.18 1216.74C1204.09 1279.14 1253.62 1372.77 1253.62 1477.44H1256.96H1260.3C1260.3 1370.8 1209.83 1275.41 1130.47 1211.86L1128.32 1214.3ZM1256.96 1477.44H1253.62C1253.62 1665.28 1094.13 1817.55 897.391 1817.55V1820.74V1823.93C1097.82 1823.93 1260.3 1668.8 1260.3 1477.44H1256.96ZM897.391 1820.74V1817.55C810.292 1817.55 730.499 1787.71 668.609 1738.15L666.462 1740.59L664.315 1743.04C727.366 1793.52 808.665 1823.93 897.391 1823.93V1820.74ZM666.462 1740.59L668.609 1738.15L602.096 1684.87L599.949 1687.31L597.802 1689.75L664.315 1743.04L666.462 1740.59ZM599.949 1687.31L597.802 1689.75C660.853 1740.24 742.152 1770.64 830.877 1770.64V1767.46V1764.27C743.778 1764.27 663.985 1734.42 602.096 1684.87L599.949 1687.31ZM830.877 1767.46L830.897 1770.64L835.545 1770.61L835.525 1767.43L835.501 1764.24L830.857 1764.27L830.877 1767.46ZM835.525 1767.43L835.565 1770.61C1033.83 1768.21 1193.78 1614.02 1193.78 1424.16H1190.45H1187.11C1187.11 1610.53 1030.1 1761.88 835.481 1764.24L835.525 1767.43ZM1190.45 1424.16H1193.78C1193.78 1317.57 1143.36 1222.21 1064.07 1158.66L1061.92 1161.1L1059.77 1163.54C1137.62 1225.94 1187.11 1319.53 1187.11 1424.16H1190.45ZM1061.92 1161.1L1059.77 1163.54L1126.18 1216.74L1128.32 1214.3L1130.47 1211.86L1064.07 1158.66L1061.92 1161.1Z" fill="#262626"/>
<path fill-rule="evenodd" clip-rule="evenodd" d="M485.962 1521.47L165.734 1607.71L258.04 1203.5L261.22 1189.71C263.814 1178.86 263.765 1168.88 261.07 1159.76C254.251 1136.68 236.662 1128.95 208.304 1136.59C197.259 1139.56 188.736 1146.16 182.736 1156.39C176.949 1166.26 175.614 1176.46 178.729 1187.01C182.265 1198.98 190.838 1208.36 204.447 1215.16L165.492 1369.64C126.931 1359.1 94.4247 1341.24 67.9725 1316.06C41.5203 1290.88 22.9477 1260.19 12.2549 1223.99C-4.33159 1167.85 2.22762 1114.24 31.9325 1063.17C61.5532 1011.81 105.766 978.211 164.572 962.377C223.676 946.46 279.676 952.762 332.573 981.284C385.768 1009.73 420.744 1052.3 437.499 1109.02C447.096 1141.51 448.408 1173.77 441.436 1205.79L408.683 1359.99L482.136 1340.21C521.366 1191.19 662.628 1080.86 830.879 1080.86C1029.46 1080.86 1190.45 1234.56 1190.45 1424.15C1190.45 1613.75 1029.46 1767.45 830.879 1767.45C667.7 1767.45 529.907 1663.67 485.962 1521.47ZM550.626 1424.15C550.63 1274.99 677.286 1154.07 833.523 1154.07C989.764 1154.07 1116.42 1274.99 1116.42 1424.15C1116.42 1573.32 989.764 1694.25 833.523 1694.25C677.283 1694.25 550.626 1573.32 550.626 1424.15Z" fill="#EFEFEF"/>
<path d="M485.961 1521.48L489.163 1520.57L488.228 1517.55L485.053 1518.41L485.961 1521.48ZM165.733 1607.71L162.471 1607.03L161.286 1612.22L166.64 1610.78L165.733 1607.71ZM258.039 1203.5L254.778 1202.81L254.776 1202.82L258.039 1203.5ZM261.219 1189.72L257.963 1189.01L257.958 1189.03L261.219 1189.72ZM204.445 1215.16L207.691 1215.91L208.301 1213.49L205.993 1212.34L204.445 1215.16ZM165.491 1369.64L164.572 1372.71L167.922 1373.62L168.737 1370.39L165.491 1369.64ZM31.9312 1063.17L34.8505 1064.72L34.8562 1064.71L31.9312 1063.17ZM332.572 981.287L330.93 984.064L330.94 984.07L332.572 981.287ZM441.435 1205.8L438.166 1205.15L438.163 1205.17L441.435 1205.8ZM408.682 1359.99L405.41 1359.36L404.321 1364.48L409.587 1363.06L408.682 1359.99ZM482.134 1340.21L483.043 1343.28L484.902 1342.78L485.373 1340.99L482.134 1340.21ZM485.961 1521.48L485.053 1518.41L164.827 1604.64L165.733 1607.71L166.64 1610.78L486.866 1524.55L485.961 1521.48ZM165.733 1607.71L168.996 1608.39L261.301 1204.18L258.039 1203.5L254.776 1202.82L162.471 1607.03L165.733 1607.71ZM258.039 1203.5L261.299 1204.18L264.479 1190.41L261.219 1189.72L257.958 1189.03L254.778 1202.81L258.039 1203.5ZM261.219 1189.72L264.474 1190.43C267.171 1179.15 267.153 1168.61 264.283 1158.9L261.069 1159.76L257.856 1160.63C260.374 1169.15 260.455 1178.59 257.963 1189.01L261.219 1189.72ZM261.069 1159.76L264.283 1158.9C260.692 1146.74 254.089 1138.12 244.158 1133.76C234.348 1129.45 221.956 1129.6 207.396 1133.52L208.302 1136.59L209.209 1139.66C223.007 1135.94 233.588 1136.14 241.367 1139.55C249.025 1142.91 254.626 1149.7 257.856 1160.63L261.069 1159.76ZM208.302 1136.59L207.396 1133.52C195.435 1136.74 186.221 1143.93 179.821 1154.84L182.734 1156.4L185.648 1157.95C191.249 1148.4 199.081 1142.38 209.209 1139.66L208.302 1136.59ZM182.734 1156.4L179.821 1154.84C173.617 1165.42 172.15 1176.49 175.514 1187.88L178.728 1187.01L181.941 1186.15C179.075 1176.44 180.279 1167.11 185.648 1157.95L182.734 1156.4ZM178.728 1187.01L175.514 1187.88C179.344 1200.84 188.633 1210.86 202.898 1217.98L204.445 1215.16L205.993 1212.34C193.04 1205.87 185.184 1197.12 181.941 1186.15L178.728 1187.01ZM204.445 1215.16L201.199 1214.41L162.245 1368.89L165.491 1369.64L168.737 1370.39L207.691 1215.91L204.445 1215.16ZM165.491 1369.64L166.41 1366.58C128.351 1356.17 96.3514 1338.58 70.3289 1313.8L67.9712 1316.06L65.6135 1318.32C92.4954 1343.91 125.509 1362.03 164.572 1372.71L165.491 1369.64ZM67.9712 1316.06L70.3289 1313.8C44.3047 1289.03 26.0133 1258.83 15.4672 1223.13L12.2535 1224L9.03987 1224.86C19.8794 1261.55 38.7332 1292.73 65.6135 1318.32L67.9712 1316.06ZM12.2535 1224L15.4672 1223.13C-0.879625 1167.8 5.573 1115.06 34.8505 1064.72L31.9312 1063.17L29.012 1061.62C-1.1201 1113.43 -7.78624 1167.91 9.03987 1224.86L12.2535 1224ZM31.9312 1063.17L34.8562 1064.71C64.0481 1014.09 107.536 981.051 165.477 965.447L164.571 962.38L163.664 959.31C103.993 975.38 59.0556 1009.53 29.0062 1061.63L31.9312 1063.17ZM164.571 962.38L165.477 965.447C223.735 949.76 278.817 955.966 330.93 984.064L332.572 981.287L334.215 978.511C280.533 949.568 223.614 943.167 163.664 959.31L164.571 962.38ZM332.572 981.287L330.94 984.07C383.352 1012.09 417.764 1053.97 434.283 1109.88L437.498 1109.02L440.71 1108.15C423.718 1050.64 388.18 1007.37 334.205 978.508L332.572 981.287ZM437.498 1109.02L434.283 1109.88C443.742 1141.9 445.028 1173.64 438.166 1205.15L441.435 1205.8L444.704 1206.45C451.789 1173.9 450.45 1141.12 440.71 1108.15L437.498 1109.02ZM441.435 1205.8L438.163 1205.17L405.41 1359.36L408.682 1359.99L411.954 1360.63L444.707 1206.43L441.435 1205.8ZM408.682 1359.99L409.587 1363.06L483.043 1343.28L482.134 1340.21L481.229 1337.15L407.774 1356.93L408.682 1359.99ZM482.134 1340.21L485.373 1340.99C524.236 1193.36 664.192 1084.05 830.877 1084.05V1080.86V1077.67C661.057 1077.67 518.49 1189.04 478.896 1339.44L482.134 1340.21ZM830.877 1080.86V1084.05C1027.62 1084.05 1187.11 1236.32 1187.11 1424.16H1190.45H1193.78C1193.78 1232.8 1031.31 1077.67 830.877 1077.67V1080.86ZM1190.45 1424.16H1187.11C1187.11 1612 1027.62 1764.27 830.877 1764.27V1767.46V1770.64C1031.31 1770.64 1193.78 1615.52 1193.78 1424.16H1190.45ZM830.877 1767.46V1764.27C669.218 1764.27 532.701 1661.46 489.163 1520.57L485.961 1521.48L482.759 1522.38C527.111 1665.9 666.179 1770.64 830.877 1770.64V1767.46ZM833.522 1154.07V1150.88C675.438 1150.88 547.289 1273.23 547.286 1424.16H550.625H553.964C553.967 1276.75 679.128 1157.26 833.522 1157.26V1154.07ZM1116.42 1424.16H1119.76C1119.76 1273.23 991.606 1150.88 833.522 1150.88V1154.07V1157.26C987.916 1157.26 1113.08 1276.75 1113.08 1424.16H1116.42ZM833.522 1694.25V1697.44C991.606 1697.44 1119.76 1575.09 1119.76 1424.16H1116.42H1113.08C1113.08 1571.57 987.916 1691.07 833.522 1691.07V1694.25ZM550.625 1424.16H547.286C547.286 1575.09 675.438 1697.44 833.522 1697.44V1694.25V1691.07C679.128 1691.07 553.964 1571.57 553.964 1424.16H550.625Z" fill="#262626"/>
<g filter="url(#filter0_f_127_1799)">
<path d="M669.075 536.474L779.247 909.407L632.72 948.866L522.548 575.933L669.075 536.474ZM547.03 389.645C566.88 384.299 585.98 386.425 604.321 396.024C622.853 405.3 634.807 419.04 640.186 437.246C645.932 456.695 643.725 474.518 633.564 490.715C623.667 506.843 608.007 517.79 586.591 523.557C565.174 529.323 545.701 527.838 528.174 519.097C510.908 510.286 499.402 496.154 493.655 476.705C488.279 458.499 490.82 440.854 501.282 423.771C511.93 406.365 527.179 394.991 547.03 389.645Z" fill="#23202B" fill-opacity="0.2"/>
<path d="M1201.71 795.642L1055.18 835.101L992.962 624.509C986.628 603.061 974.187 594.837 955.642 599.829C937.361 604.754 931.387 617.939 937.721 639.384L999.934 849.976L853.407 889.438L791.965 681.463C777.601 632.836 782.365 587.403 806.263 545.161C830.084 502.673 866.416 474.853 915.259 461.7C971.155 446.647 1021.66 453.909 1066.77 483.489C1102.07 506.559 1127.67 545.023 1143.58 598.888L1201.71 795.642Z" fill="#23202B" fill-opacity="0.2"/>
<path d="M1255.1 230.058L1297.31 372.947L1363.13 355.223L1406.78 502.973L1340.96 520.697C1349.73 550.373 1360.6 569.519 1373.58 578.139C1386.82 586.689 1406.5 587.447 1432.62 580.412L1476.05 727.416C1468.55 729.705 1462.97 731.34 1459.31 732.325C1426.14 741.261 1392.62 742.345 1358.76 735.58C1325.16 728.745 1295.76 715.124 1270.56 694.721C1238.59 668.6 1214.77 628.985 1199.07 575.869L1108.57 269.517L1255.1 230.058Z" fill="#23202B" fill-opacity="0.2"/>
</g>
<path d="M588.675 392.152L698.846 765.085L552.319 804.544L442.147 431.611L588.675 392.152ZM466.629 245.32C486.48 239.974 505.576 242.1 523.921 251.699C542.452 260.975 554.406 274.715 559.782 292.921C565.528 312.37 563.321 330.196 553.164 346.391C543.264 362.518 527.607 373.465 506.187 379.232C484.77 384.999 465.297 383.513 447.77 374.772C430.508 365.961 419.001 351.832 413.255 332.38C407.876 314.177 410.417 296.533 420.878 279.446C431.529 262.04 446.779 250.666 466.629 245.32Z" fill="#C7C7C7"/>
<path d="M1121.3 651.317L974.776 690.776L912.563 480.184C908.86 467.656 903.074 459.638 895.207 456.132C889.607 453.639 882.953 453.428 875.243 455.507C856.958 460.429 850.985 473.614 857.319 495.061L919.532 705.654L773.005 745.113L711.563 537.138C697.198 488.51 701.963 443.077 725.861 400.838C749.681 358.348 786.014 330.527 834.857 317.374C880.001 305.216 921.629 307.616 959.737 324.572C968.816 328.611 977.691 333.473 986.369 339.163C1021.66 362.234 1047.27 400.701 1063.18 454.563L1121.3 651.317Z" fill="#C7C7C7"/>
<path d="M1174.7 85.7352L1216.91 228.624L1282.73 210.899L1326.38 358.65L1260.56 376.377C1269.33 406.049 1280.2 425.199 1293.18 433.819C1294.83 434.88 1296.57 435.824 1298.42 436.643C1311.41 442.436 1329.35 442.251 1352.22 436.089L1395.65 583.093C1388.15 585.382 1382.57 587.02 1378.91 588.005C1345.74 596.937 1312.22 598.021 1278.36 591.257C1262.61 588.053 1247.78 583.357 1233.87 577.17C1218.12 570.16 1203.54 561.237 1190.16 550.398C1158.19 524.28 1134.36 484.662 1118.67 431.546L1028.17 125.194L1174.7 85.7352Z" fill="#C7C7C7"/>
<path d="M342.186 244.408C331.724 261.495 329.183 279.14 334.559 297.342L413.254 332.377C407.875 314.174 410.419 296.529 420.88 279.443L342.186 244.408Z" fill="#C7C7C7"/>
<path d="M387.933 210.283C368.083 215.629 352.833 227.003 342.185 244.409L420.876 279.443C431.524 262.037 446.777 250.663 466.628 245.317L387.933 210.283Z" fill="#C7C7C7"/>
<path d="M334.559 297.344C340.306 316.796 351.812 330.925 369.078 339.736L447.773 374.77C430.506 365.959 419 351.828 413.254 332.379L334.559 297.344Z" fill="#C7C7C7"/>
<path d="M387.933 210.284C407.784 204.938 426.88 207.064 445.224 216.663L513.755 247.17C517.167 248.429 520.557 249.937 523.919 251.697L513.755 247.17C498.549 241.569 482.839 240.951 466.628 245.318L387.933 210.284Z" fill="#C7C7C7"/>
<path d="M523.92 251.697C542.452 260.974 554.406 274.716 559.785 292.919C565.532 312.371 563.321 330.195 553.164 346.392C543.263 362.516 527.607 373.463 506.19 379.23C484.77 385 465.297 383.511 447.77 374.77L375.229 342.474C391.13 348.722 408.553 349.296 427.496 344.195C448.912 338.429 464.572 327.482 474.469 311.354C484.63 295.16 486.834 277.334 481.091 257.885C475.711 239.682 463.758 225.939 445.226 216.663L523.92 251.697Z" fill="url(#paint7_linear_127_1799)"/>
<path d="M523.921 251.697L525.47 248.873C525.427 248.85 525.38 248.828 525.334 248.809L523.921 251.697ZM553.164 346.392L550.3 344.753L550.283 344.779L553.164 346.392ZM447.771 374.77L449.317 371.946C449.273 371.923 449.227 371.901 449.183 371.882L447.771 374.77ZM375.23 342.474L376.499 339.525C374.823 338.865 372.9 339.608 372.172 341.193C371.444 342.78 372.175 344.632 373.818 345.362L375.23 342.474ZM474.47 311.354L471.605 309.716L471.588 309.745L474.47 311.354ZM445.227 216.663L446.636 213.775C444.993 213.041 443.036 213.695 442.231 215.247C441.427 216.8 442.068 218.681 443.674 219.487L445.227 216.663ZM523.921 251.697L522.368 254.522C540.139 263.416 551.458 276.476 556.57 293.786L559.786 292.919L562.998 292.055C557.358 272.957 544.763 258.532 525.47 248.873L523.921 251.697ZM559.786 292.919L556.57 293.786C562.086 312.457 559.949 329.366 550.3 344.753L553.164 346.392L556.026 348.027C566.694 331.023 568.975 312.282 562.998 292.055L559.786 292.919ZM553.164 346.392L550.283 344.779C540.88 360.097 525.991 370.584 505.283 376.163L506.191 379.23L507.096 382.3C529.22 376.342 545.648 364.936 556.043 348.002L553.164 346.392ZM506.191 379.23L505.283 376.163C484.574 381.739 465.992 380.26 449.317 371.946L447.771 374.77L446.225 377.598C464.603 386.763 484.968 388.258 507.096 382.3L506.191 379.23ZM447.771 374.77L449.183 371.882L376.639 339.586L375.23 342.474L373.818 345.362L446.362 377.658L447.771 374.77ZM375.23 342.474L373.958 345.423C390.647 351.98 408.848 352.529 428.404 347.262L427.496 344.196L426.591 341.129C408.257 346.064 391.612 345.464 376.499 339.525L375.23 342.474ZM427.496 344.196L428.404 347.262C450.529 341.304 466.957 329.901 477.352 312.967L474.47 311.354L471.588 309.745C462.189 325.059 447.3 335.55 426.591 341.129L427.496 344.196ZM474.47 311.354L477.335 312.993C488.003 295.986 490.28 277.248 484.303 257.021L481.091 257.885L477.876 258.749C483.392 277.423 481.258 294.331 471.605 309.716L474.47 311.354ZM481.091 257.885L484.303 257.021C478.66 237.919 466.069 223.497 446.776 213.838L445.227 216.663L443.674 219.487C461.444 228.381 472.764 241.442 477.876 258.749L481.091 257.885ZM445.227 216.663L443.814 219.551L522.509 254.585L523.921 251.697L525.334 248.809L446.636 213.775L445.227 216.663Z" fill="#262626"/>
<path d="M509.984 357.115L363.453 396.574L442.148 431.609L588.675 392.15L509.984 357.115Z" fill="#C7C7C7"/>
<path d="M363.453 396.575L473.628 769.511L552.323 804.545L442.148 431.609L363.453 396.575Z" fill="#C7C7C7"/>
<path d="M620.153 730.051L509.981 357.115L588.676 392.15L698.848 765.086L620.153 730.051Z" fill="url(#paint8_linear_127_1799)" stroke="#262626" stroke-width="2" stroke-linejoin="round"/>
<path d="M647.169 365.802C623.274 408.045 618.506 453.478 632.874 502.105L711.565 537.139C697.201 488.512 701.966 443.079 725.863 400.837L647.169 365.802Z" fill="#C7C7C7"/>
<path d="M756.162 282.342C707.319 295.495 670.987 323.315 647.166 365.806L725.857 400.841C749.681 358.35 786.013 330.529 834.857 317.376L756.162 282.342Z" fill="#C7C7C7"/>
<path d="M473.625 769.509L620.156 730.05L698.847 765.084L552.32 804.543L473.625 769.509Z" fill="url(#paint9_linear_127_1799)" stroke="#262626" stroke-width="2" stroke-linejoin="round"/>
<path d="M881.044 289.536C842.935 272.584 801.307 270.183 756.164 282.338L834.858 317.373C880.002 305.217 921.626 307.615 959.738 324.571L881.044 289.536Z" fill="#C7C7C7"/>
<path d="M632.872 502.104L694.314 710.079L773.005 745.113L711.567 537.139L632.872 502.104Z" fill="#C7C7C7"/>
<path d="M816.514 421.099C824.384 424.606 830.167 432.62 833.87 445.152L912.565 480.186C908.862 467.655 903.075 459.637 895.208 456.134L816.514 421.099Z" fill="#C7C7C7"/>
<path d="M1096.01 50.6988L949.475 90.1576L1028.17 125.192L1174.7 85.7329L1096.01 50.6988Z" fill="#C7C7C7"/>
<path d="M796.547 420.467C804.257 418.392 810.912 418.602 816.511 421.095L895.196 456.126C889.947 453.79 883.773 453.465 876.671 455.141L875.238 455.505L873.562 455.989C857.141 461.087 851.541 473.449 856.76 493.07L857.318 495.06L919.531 705.652L840.836 670.62L778.623 460.022C772.286 438.577 778.262 425.392 796.544 420.47L796.547 420.467Z" fill="url(#paint10_linear_127_1799)"/>
<path d="M796.545 420.468L797.41 423.551L797.45 423.538L796.545 420.468ZM895.194 456.127L893.782 459.016C895.455 459.762 897.441 459.07 898.219 457.473C899.001 455.879 898.276 453.982 896.603 453.239L895.194 456.127ZM876.669 455.142L875.864 452.047C875.848 452.053 875.828 452.056 875.811 452.063L876.669 455.142ZM875.237 455.506L874.379 452.423C874.342 452.433 874.308 452.442 874.272 452.455L875.237 455.506ZM873.56 455.99L872.595 452.936C872.572 452.943 872.549 452.952 872.529 452.959L873.56 455.99ZM856.758 493.071L853.523 493.855L853.533 493.897L856.758 493.071ZM857.316 495.061L854.091 495.883L854.101 495.924L857.316 495.061ZM919.529 705.653L918.12 708.541C919.302 709.07 920.698 708.888 921.693 708.082C922.688 707.272 923.099 705.987 922.745 704.785L919.529 705.653ZM840.835 670.621L837.622 671.485C837.886 672.378 838.544 673.117 839.425 673.51L840.835 670.621ZM796.542 420.471L795.677 417.392L795.634 417.401L796.542 420.471ZM796.545 420.468L797.45 423.538C804.623 421.606 810.416 421.9 815.097 423.984L816.51 421.096L817.922 418.208C811.404 415.304 803.885 415.183 795.637 417.401L796.545 420.468ZM816.51 421.096L815.097 423.984L893.782 459.016L895.194 456.127L896.603 453.239L817.922 418.208L816.51 421.096ZM895.194 456.127L896.603 453.239C890.499 450.52 883.507 450.243 875.864 452.047L876.669 455.142L877.47 458.238C884.032 456.685 889.391 457.061 893.782 459.016L895.194 456.127ZM876.669 455.142L875.811 452.063L874.379 452.423L875.237 455.506L876.095 458.585L877.524 458.225L876.669 455.142ZM875.237 455.506L874.272 452.455L872.595 452.936L873.56 455.99L874.525 459.041L876.202 458.557L875.237 455.506ZM873.56 455.99L872.529 452.959C863.627 455.723 857.243 460.616 853.98 467.82C850.772 474.901 850.818 483.689 853.523 493.855L856.758 493.071L859.994 492.287C857.48 482.832 857.717 475.631 860.107 470.352C862.445 465.194 867.073 461.355 874.592 459.022L873.56 455.99ZM856.758 493.071L853.533 493.897L854.091 495.883L857.316 495.061L860.542 494.235L859.984 492.246L856.758 493.071ZM857.316 495.061L854.101 495.924L916.317 706.516L919.529 705.653L922.745 704.785L860.528 494.193L857.316 495.061ZM919.529 705.653L920.941 702.764L842.247 667.73L840.835 670.621L839.425 673.51L918.12 708.541L919.529 705.653ZM840.835 670.621L844.05 669.754L781.834 459.159L778.621 460.023L775.406 460.89L837.622 671.485L840.835 670.621ZM778.621 460.023L781.834 459.159C778.765 448.773 778.862 440.953 781.413 435.317C783.9 429.831 788.996 425.814 797.447 423.538L796.542 420.471L795.634 417.401C785.804 420.051 778.772 425.091 775.286 432.786C771.867 440.335 772.14 449.831 775.406 460.89L778.621 460.023ZM796.542 420.471L797.41 423.551L796.545 420.468L795.681 417.392H795.677L796.542 420.471Z" fill="#262626"/>
<path d="M694.316 710.083L840.843 670.621L919.538 705.655L773.007 745.114L694.316 710.083Z" fill="url(#paint11_linear_127_1799)" stroke="#262626" stroke-width="2" stroke-linejoin="round"/>
<path d="M949.475 90.1582L1039.98 396.51L1118.67 431.544L1028.17 125.193L949.475 90.1582Z" fill="#C7C7C7"/>
<path d="M833.871 445.15L896.084 655.745L974.779 690.779L912.566 480.184L833.871 445.15Z" fill="#C7C7C7"/>
<path d="M1138.22 193.588L1096.01 50.6988L1174.7 85.7338L1216.91 228.622L1138.22 193.588Z" fill="url(#paint12_linear_127_1799)" stroke="#262626" stroke-width="2" stroke-linejoin="round"/>
<path d="M1204.04 175.864L1138.22 193.588L1216.91 228.622L1282.73 210.898L1204.04 175.864Z" fill="#C7C7C7"/>
<path d="M959.739 324.57C968.815 328.609 977.693 333.477 986.372 339.164C1021.67 362.234 1047.27 400.702 1063.18 454.567L1121.31 651.317L1042.61 616.286L984.488 419.529C968.575 365.667 942.974 327.2 907.677 304.129C899.026 298.455 890.174 293.606 881.125 289.574L959.739 324.57Z" fill="url(#paint13_linear_127_1799)"/>
<mask id="mask0_127_1799" style="mask-type:luminance" maskUnits="userSpaceOnUse" x="872" y="247" width="262" height="448">
<path d="M1133.01 247.934H872.942V694.601H1133.01V247.934Z" fill="white"/>
<path d="M959.737 324.569C968.813 328.608 977.691 333.476 986.37 339.163C1021.66 362.234 1047.27 400.701 1063.18 454.566L1121.31 651.317L1042.61 616.286L984.486 419.529C968.573 365.667 942.972 327.199 907.675 304.129C899.024 298.455 890.172 293.606 881.123 289.573L959.737 324.569Z" fill="black"/>
</mask>
<g mask="url(#mask0_127_1799)">
<path d="M959.737 324.569L956.912 330.349H956.916L959.737 324.569ZM986.37 339.163L982.586 344.42L982.596 344.426L986.37 339.163ZM1121.31 651.317L1118.48 657.096C1120.85 658.148 1123.64 657.791 1125.63 656.175C1127.62 654.559 1128.44 651.986 1127.73 649.586L1121.31 651.317ZM1042.61 616.286L1036.18 618.017C1036.71 619.802 1038.03 621.281 1039.79 622.065L1042.61 616.286ZM907.675 304.129L903.895 309.386L903.902 309.389L907.675 304.129ZM881.123 289.573L883.944 283.794C880.602 282.308 876.628 283.688 875.069 286.876C873.51 290.067 874.956 293.861 878.298 295.35L881.123 289.573ZM959.737 324.569L956.916 330.349C965.641 334.232 974.199 338.921 982.586 344.42L986.37 339.163L990.149 333.91C981.184 328.031 971.985 322.985 962.555 318.793L959.737 324.569ZM986.37 339.163L982.596 344.426C1016.19 366.384 1041.11 403.338 1056.75 456.297L1063.18 454.566L1069.61 452.835C1053.43 398.065 1027.13 358.083 990.139 333.903L986.37 339.163ZM1063.18 454.566L1056.75 456.297L1114.88 653.048L1121.31 651.317L1127.73 649.586L1069.61 452.835L1063.18 454.566ZM1121.31 651.317L1124.13 645.54L1045.43 610.506L1042.61 616.286L1039.79 622.065L1118.48 657.096L1121.31 651.317ZM1042.61 616.286L1049.04 614.555L990.914 417.798L984.486 419.529L978.059 421.26L1036.18 618.017L1042.61 616.286ZM984.486 419.529L990.914 417.798C974.733 363.031 948.441 323.049 911.448 298.869L907.675 304.129L903.902 309.389C937.499 331.35 962.412 368.303 978.059 421.26L984.486 419.529ZM907.675 304.129L911.458 298.872C902.516 293.01 893.344 287.983 883.944 283.794L881.123 289.573L878.298 295.35C887 299.226 895.531 303.899 903.895 309.386L907.675 304.129ZM881.123 289.573L878.298 295.35L956.912 330.349L959.737 324.569L962.555 318.793L883.944 283.794L881.123 289.573Z" fill="#262626"/>
</g>
<path d="M896.086 655.745L1042.61 616.286L1121.31 651.32L974.777 690.779L896.086 655.745Z" fill="url(#paint14_linear_127_1799)" stroke="#262626" stroke-width="2" stroke-linejoin="round"/>
<path d="M1039.98 396.51C1055.67 449.626 1079.5 489.244 1111.47 515.366L1190.16 550.4C1158.19 524.279 1134.36 484.66 1118.67 431.544L1039.98 396.51Z" fill="#C7C7C7"/>
<path d="M1247.69 323.617L1204.04 175.864L1282.73 210.898L1326.38 358.651L1247.69 323.617Z" fill="url(#paint15_linear_127_1799)" stroke="#262626" stroke-width="2" stroke-linejoin="round"/>
<path d="M1181.87 341.342L1247.69 323.618L1326.38 358.652L1260.56 376.377L1181.87 341.342Z" fill="url(#paint16_linear_127_1799)" stroke="#262626" stroke-width="2" stroke-linejoin="round"/>
<path d="M1214.49 398.784C1201.51 390.164 1190.63 371.018 1181.87 341.342L1260.56 376.377C1269.33 406.052 1280.2 425.199 1293.18 433.819L1214.49 398.784Z" fill="url(#paint17_linear_127_1799)" stroke="#262626" stroke-width="2" stroke-linejoin="round"/>
<path d="M1111.47 515.365C1124.85 526.204 1139.42 535.127 1155.18 542.137L1233.78 577.127C1218.06 570.123 1203.52 561.216 1190.16 550.4L1111.47 515.365Z" fill="#C7C7C7"/>
<path d="M1219.72 401.61C1217.88 400.787 1216.13 399.847 1214.49 398.782L1293.18 433.817C1294.83 434.878 1296.57 435.822 1298.42 436.644L1219.72 401.61Z" fill="#C7C7C7"/>
<path d="M1273.52 401.057C1250.66 407.216 1232.73 407.404 1219.74 401.621L1298.42 436.646C1311.41 442.435 1329.35 442.25 1352.22 436.091L1273.52 401.057Z" fill="#C7C7C7"/>
<path d="M1316.96 548.061L1273.52 401.057L1352.22 436.091L1395.65 583.096L1316.96 548.061Z" fill="url(#paint18_linear_127_1799)" stroke="#262626" stroke-width="2" stroke-linejoin="round"/>
<path d="M1155.18 542.138C1169.08 548.326 1183.92 553.021 1199.67 556.225L1199.68 556.231C1233.54 562.99 1267.05 561.906 1300.22 552.977L1378.91 588.008C1346.78 596.663 1314.32 597.951 1281.53 591.875L1278.36 591.259L1275.42 590.641C1260.76 587.463 1246.91 582.974 1233.87 577.176L1155.18 542.138ZM1395.65 583.099C1388.15 585.387 1382.57 587.023 1378.91 588.008L1300.22 552.973C1303.87 551.988 1309.45 550.353 1316.95 548.064L1395.65 583.099Z" fill="#C7C7C7"/>
<path d="M1155.18 542.138L1156.59 539.25C1154.92 538.504 1152.93 539.195 1152.15 540.789C1151.38 542.386 1152.1 544.283 1153.77 545.026L1155.18 542.138ZM1199.67 556.225L1200.91 553.267C1200.74 553.196 1200.55 553.145 1200.37 553.107L1199.67 556.225ZM1199.69 556.231L1198.44 559.19C1198.62 559.256 1198.81 559.311 1199 559.349L1199.69 556.231ZM1281.54 591.874L1280.87 594.999L1280.9 595.002L1281.54 591.874ZM1278.36 591.259L1277.65 594.374C1277.67 594.377 1277.68 594.38 1277.7 594.383L1278.36 591.259ZM1275.42 590.641L1274.68 593.749L1274.7 593.755L1275.42 590.641ZM1233.87 577.175L1232.46 580.064H1232.46L1233.87 577.175ZM1395.65 583.098L1396.67 586.136C1397.97 585.735 1398.89 584.609 1398.98 583.299C1399.07 581.992 1398.3 580.765 1397.06 580.21L1395.65 583.098ZM1300.22 552.973L1299.31 549.903C1297.97 550.267 1297 551.386 1296.89 552.715C1296.78 554.044 1297.54 555.297 1298.81 555.861L1300.22 552.973ZM1316.96 548.064L1318.36 545.173C1317.6 544.835 1316.74 544.78 1315.94 545.026L1316.96 548.064ZM1155.18 542.138L1153.77 545.026C1167.92 551.322 1182.99 556.091 1198.97 559.343L1199.67 556.225L1200.37 553.107C1184.85 549.948 1170.26 545.329 1156.59 539.25L1155.18 542.138ZM1199.67 556.225L1198.43 559.183L1198.44 559.19L1199.69 556.231L1200.93 553.273L1200.91 553.267L1199.67 556.225ZM1199.69 556.231L1199 559.349C1233.38 566.216 1267.44 565.116 1301.13 556.043L1300.22 552.976L1299.31 549.907C1266.67 558.699 1233.7 559.767 1200.37 553.11L1199.69 556.231ZM1378.91 588.008L1378 584.941C1346.37 593.459 1314.44 594.728 1282.17 588.744L1281.54 591.874L1280.9 595.002C1314.19 601.177 1347.18 599.866 1379.82 591.077L1378.91 588.008ZM1281.54 591.874L1282.2 588.747L1279.02 588.135L1278.36 591.259L1277.7 594.383L1280.87 594.999L1281.54 591.874ZM1278.36 591.259L1279.08 588.148L1276.14 587.526L1275.42 590.641L1274.7 593.755L1277.65 594.374L1278.36 591.259ZM1275.42 590.641L1276.16 587.533C1261.72 584.402 1248.09 579.984 1235.28 574.284L1233.87 577.175L1232.46 580.064C1245.72 585.964 1259.8 590.523 1274.68 593.749L1275.42 590.641ZM1233.87 577.175L1235.29 574.284L1156.59 539.25L1155.18 542.138L1153.77 545.026L1232.46 580.064L1233.87 577.175ZM1395.65 583.098L1394.63 580.064C1387.14 582.349 1381.6 583.972 1378 584.941L1378.91 588.008L1379.82 591.077C1383.53 590.077 1389.16 588.425 1396.67 586.136L1395.65 583.098ZM1300.22 552.973L1301.13 556.04C1304.84 555.039 1310.46 553.391 1317.97 551.099L1316.96 548.064L1315.94 545.026C1308.44 547.312 1302.91 548.934 1299.31 549.903L1300.22 552.973ZM1316.96 548.064L1315.54 550.952L1394.23 585.987L1395.65 583.098L1397.06 580.21L1318.36 545.173L1316.96 548.064Z" fill="#262626"/>
<path d="M509.982 357.118L620.154 730.048L473.627 769.51L363.455 396.577L509.982 357.118ZM387.937 210.286C407.788 204.94 426.884 207.067 445.228 216.665C463.76 225.942 475.714 239.685 481.093 257.887C486.836 277.339 484.632 295.163 474.472 311.357C464.571 327.484 448.915 338.431 427.498 344.198C406.078 349.968 386.608 348.479 369.081 339.738C351.815 330.927 340.309 316.799 334.562 297.346C329.186 279.144 331.727 261.499 342.189 244.412C352.837 227.01 368.086 215.632 387.937 210.286Z" fill="#EFEFEF"/>
<path d="M1042.61 616.282L896.083 655.741L833.87 445.149C827.535 423.705 815.094 415.477 796.549 420.472C778.265 425.394 772.291 438.579 778.629 460.027L840.842 670.619L694.311 710.078L632.873 502.103C618.508 453.476 623.273 408.043 647.167 365.804C670.991 323.313 707.323 295.493 756.167 282.34C812.059 267.287 862.565 274.552 907.676 304.129C942.97 327.199 968.573 365.667 984.487 419.529L1042.61 616.282Z" fill="#EFEFEF"/>
<path d="M1096.01 50.7018L1138.22 193.59L1204.04 175.865L1247.69 323.615L1181.87 341.343C1190.63 371.018 1201.51 390.165 1214.49 398.785C1227.73 407.331 1247.4 408.09 1273.53 401.054L1316.95 548.058C1309.45 550.347 1303.87 551.986 1300.21 552.971C1267.04 561.903 1233.53 562.987 1199.67 556.223C1166.07 549.388 1136.67 535.769 1111.47 515.364C1079.5 489.246 1055.67 449.627 1039.98 396.512L949.479 90.16L1096.01 50.7018Z" fill="#EFEFEF"/>
<path d="M509.982 357.118L620.154 730.048L473.627 769.51L363.455 396.577L509.982 357.118ZM387.937 210.286C407.788 204.94 426.884 207.067 445.228 216.665C463.76 225.942 475.714 239.685 481.093 257.887C486.836 277.339 484.632 295.163 474.472 311.357C464.571 327.484 448.915 338.431 427.498 344.198C406.078 349.968 386.608 348.479 369.081 339.738C351.815 330.927 340.309 316.799 334.562 297.346C329.186 279.144 331.727 261.499 342.189 244.412C352.837 227.01 368.086 215.632 387.937 210.286Z" stroke="#262626" stroke-width="2"/>
<path d="M1042.61 616.282L896.083 655.741L833.87 445.149C827.535 423.705 815.094 415.477 796.549 420.472C778.265 425.394 772.291 438.579 778.629 460.027L840.842 670.619L694.311 710.078L632.873 502.103C618.508 453.476 623.273 408.043 647.167 365.804C670.991 323.313 707.323 295.493 756.167 282.34C812.059 267.287 862.565 274.552 907.676 304.129C942.97 327.199 968.573 365.667 984.487 419.529L1042.61 616.282Z" stroke="#262626" stroke-width="2"/>
<path d="M1096.01 50.7018L1138.22 193.59L1204.04 175.865L1247.69 323.615L1181.87 341.343C1190.63 371.018 1201.51 390.165 1214.49 398.785C1227.73 407.331 1247.4 408.09 1273.53 401.054L1316.95 548.058C1309.45 550.347 1303.87 551.986 1300.21 552.971C1267.04 561.903 1233.53 562.987 1199.67 556.223C1166.07 549.388 1136.67 535.769 1111.47 515.364C1079.5 489.246 1055.67 449.627 1039.98 396.512L949.479 90.16L1096.01 50.7018Z" stroke="#262626" stroke-width="2"/>
<path d="M2036.44 1175.65L2082.52 1331.63C2102.25 1307.74 2124.52 1292.46 2149.33 1285.77C2186.95 1275.64 2220.55 1280.59 2250.16 1300.62C2253.29 1302.72 2256.34 1304.95 2259.29 1307.31C2284.43 1327.44 2302.84 1357.26 2314.51 1396.76L2384.35 1633.17L2237.82 1672.63L2179.58 1475.5C2174.87 1459.54 2169.87 1449.31 2164.6 1444.81C2159.58 1440.23 2151.98 1439.32 2141.79 1442.06C2125.34 1446.49 2120.53 1460.31 2127.39 1483.5L2187.28 1686.24L2040.75 1725.7L1889.91 1215.11L2036.44 1175.65Z" fill="#C7C7C7"/>
<path d="M1969.92 1122.36L1823.39 1161.82L1889.91 1215.11L2036.43 1175.65L1969.92 1122.36Z" fill="#C7C7C7"/>
<path d="M2016 1278.34L1969.92 1122.36L2036.44 1175.65L2082.52 1331.63L2016 1278.34Z" fill="url(#paint19_linear_127_1799)" stroke="#262626" stroke-width="2" stroke-linejoin="round"/>
<path d="M1823.39 1161.82L1974.23 1672.41L2040.75 1725.7L1889.91 1215.11L1823.39 1161.82Z" fill="#C7C7C7"/>
<path d="M2082.82 1232.49C2058.01 1239.17 2035.73 1254.45 2016 1278.34L2082.52 1331.63C2102.25 1307.74 2124.52 1292.46 2149.33 1285.77L2082.82 1232.49Z" fill="#C7C7C7"/>
<path d="M2183.64 1247.34C2154.04 1227.31 2120.43 1222.36 2082.82 1232.49L2149.33 1285.77C2186.95 1275.65 2220.55 1280.59 2250.16 1300.62L2183.64 1247.34Z" fill="#C7C7C7"/>
<path d="M2192.77 1254.03C2189.82 1251.66 2186.78 1249.43 2183.64 1247.34L2250.15 1300.62C2253.29 1302.72 2256.33 1304.95 2259.29 1307.31L2192.77 1254.03Z" fill="#C7C7C7"/>
<path d="M2098.08 1391.52C2103.36 1396.02 2108.35 1406.25 2113.07 1422.21L2179.58 1475.5C2174.87 1459.54 2169.87 1449.31 2164.59 1444.81L2098.08 1391.52Z" fill="#C7C7C7"/>
<path d="M2077.16 1388.31C2086.4 1386.16 2093.38 1387.23 2098.08 1391.52L2163.07 1443.59C2158.08 1440.1 2150.99 1439.59 2141.79 1442.06L2140.28 1442.51C2125.04 1447.37 2120.75 1461.03 2127.39 1483.5L2187.28 1686.24L2120.76 1632.95L2060.87 1430.21C2054.02 1407.02 2058.82 1393.21 2075.27 1388.78L2077.16 1388.31Z" fill="url(#paint20_linear_127_1799)"/>
<path d="M2077.16 1388.3L2076.37 1385.21C2076.34 1385.21 2076.32 1385.22 2076.3 1385.22L2077.16 1388.3ZM2098.08 1391.52L2095.77 1393.83C2095.82 1393.87 2095.88 1393.92 2095.93 1393.96L2098.08 1391.52ZM2163.07 1443.58L2161.09 1446.15C2162.54 1447.17 2164.58 1446.91 2165.69 1445.55C2166.81 1444.2 2166.59 1442.25 2165.21 1441.14L2163.07 1443.58ZM2141.79 1442.06L2140.89 1438.99C2140.86 1439 2140.83 1439.01 2140.81 1439.02L2141.79 1442.06ZM2140.28 1442.51L2139.3 1439.46C2139.27 1439.47 2139.25 1439.48 2139.22 1439.48L2140.28 1442.51ZM2187.28 1686.24L2185.13 1688.68C2186.25 1689.58 2187.86 1689.67 2189.09 1688.91C2190.32 1688.16 2190.89 1686.72 2190.49 1685.37L2187.28 1686.24ZM2120.76 1632.95L2117.55 1633.82C2117.73 1634.43 2118.11 1634.98 2118.62 1635.39L2120.76 1632.95ZM2075.27 1388.78L2074.42 1385.69C2074.4 1385.7 2074.38 1385.7 2074.37 1385.71L2075.27 1388.78ZM2077.16 1388.3L2077.94 1391.4C2086.64 1389.39 2092.23 1390.6 2095.77 1393.83L2098.08 1391.52L2100.39 1389.21C2094.52 1383.87 2086.17 1382.94 2076.37 1385.21L2077.16 1388.3ZM2098.08 1391.52L2095.93 1393.96L2160.92 1446.03L2163.07 1443.58L2165.21 1441.14L2100.23 1389.08L2098.08 1391.52ZM2163.07 1443.58L2165.04 1441.02C2158.86 1436.68 2150.53 1436.4 2140.89 1438.99L2141.79 1442.06L2142.69 1445.13C2151.46 1442.77 2157.31 1443.51 2161.09 1446.15L2163.07 1443.58ZM2141.79 1442.06L2140.81 1439.02L2139.3 1439.46L2140.28 1442.51L2141.27 1445.55L2142.78 1445.11L2141.79 1442.06ZM2140.28 1442.51L2139.22 1439.48C2130.66 1442.21 2124.92 1447.58 2122.43 1455.48C2120.02 1463.16 2120.78 1472.88 2124.17 1484.36L2127.39 1483.5L2130.6 1482.63C2127.35 1471.65 2126.94 1463.31 2128.83 1457.32C2130.64 1451.56 2134.66 1447.66 2141.34 1445.53L2140.28 1442.51ZM2127.39 1483.5L2124.17 1484.36L2184.07 1687.1L2187.28 1686.24L2190.49 1685.37L2130.6 1482.63L2127.39 1483.5ZM2187.28 1686.24L2189.42 1683.8L2122.91 1630.51L2120.76 1632.95L2118.62 1635.39L2185.13 1688.68L2187.28 1686.24ZM2120.76 1632.95L2123.98 1632.09L2064.08 1429.34L2060.87 1430.21L2057.65 1431.08L2117.55 1633.82L2120.76 1632.95ZM2060.87 1430.21L2064.08 1429.34C2060.73 1418 2060.41 1409.48 2062.5 1403.46C2064.5 1397.7 2068.87 1393.82 2076.18 1391.85L2075.27 1388.78L2074.37 1385.71C2065.23 1388.17 2058.96 1393.41 2056.16 1401.45C2053.45 1409.25 2054.15 1419.23 2057.65 1431.08L2060.87 1430.21ZM2075.27 1388.78L2076.12 1391.86L2078 1391.39L2077.16 1388.3L2076.3 1385.22L2074.42 1385.69L2075.27 1388.78Z" fill="#262626"/>
<path d="M2113.07 1422.21L2171.3 1619.34L2237.82 1672.63L2179.58 1475.5L2113.07 1422.21Z" fill="#C7C7C7"/>
<path d="M1974.24 1672.41L2120.76 1632.95L2187.28 1686.24L2040.75 1725.7L1974.24 1672.41Z" fill="url(#paint21_linear_127_1799)" stroke="#262626" stroke-width="2" stroke-linejoin="round"/>
<path d="M2259.29 1307.31C2284.43 1327.44 2302.84 1357.26 2314.51 1396.76L2384.35 1633.17L2317.83 1579.88L2247.99 1343.48C2236.33 1304 2217.94 1274.2 2192.82 1254.07L2259.29 1307.31Z" fill="url(#paint22_linear_127_1799)"/>
<path d="M2384.35 1633.17L2382.2 1635.61C2383.32 1636.51 2384.93 1636.61 2386.16 1635.85C2387.39 1635.09 2387.96 1633.65 2387.56 1632.3L2384.35 1633.17ZM2317.84 1579.88L2314.62 1580.75C2314.8 1581.36 2315.17 1581.91 2315.69 1582.32L2317.84 1579.88ZM2192.82 1254.07L2194.97 1251.63C2193.56 1250.5 2191.45 1250.67 2190.27 1252.02C2189.08 1253.37 2189.27 1255.38 2190.68 1256.51L2192.82 1254.07ZM2259.29 1307.31L2257.14 1309.75C2281.63 1329.37 2299.75 1358.55 2311.29 1397.63L2314.51 1396.76L2317.72 1395.9C2305.92 1355.97 2287.23 1325.52 2261.43 1304.87L2259.29 1307.31ZM2314.51 1396.76L2311.29 1397.63L2381.13 1634.03L2384.35 1633.17L2387.56 1632.3L2317.72 1395.9L2314.51 1396.76ZM2384.35 1633.17L2386.5 1630.73L2319.98 1577.44L2317.84 1579.88L2315.69 1582.32L2382.2 1635.61L2384.35 1633.17ZM2317.84 1579.88L2321.05 1579.02L2251.21 1342.61L2248 1343.48L2244.78 1344.34L2314.62 1580.75L2317.84 1579.88ZM2248 1343.48L2251.21 1342.61C2239.42 1302.71 2220.74 1272.28 2194.97 1251.63L2192.82 1254.07L2190.68 1256.51C2215.15 1276.12 2233.25 1305.29 2244.78 1344.34L2248 1343.48ZM2192.82 1254.07L2190.68 1256.51L2257.14 1309.75L2259.29 1307.31L2261.44 1304.87L2194.97 1251.63L2192.82 1254.07Z" fill="#262626"/>
<path d="M2171.31 1619.34L2317.83 1579.88L2384.35 1633.17L2237.82 1672.63L2171.31 1619.34Z" fill="url(#paint23_linear_127_1799)" stroke="#262626" stroke-width="2" stroke-linejoin="round"/>
<path d="M1969.92 1122.36L2016 1278.34C2035.73 1254.45 2058 1239.17 2082.82 1232.49C2120.43 1222.36 2154.04 1227.31 2183.64 1247.34C2213.5 1267.29 2234.95 1299.34 2247.99 1343.48L2317.83 1579.88L2171.3 1619.34L2113.07 1422.21C2108.35 1406.25 2103.36 1396.02 2098.08 1391.52C2093.06 1386.95 2085.46 1386.04 2075.27 1388.78C2058.82 1393.21 2054.02 1407.02 2060.87 1430.21L2120.76 1632.95L1974.23 1672.41L1823.39 1161.82L1969.92 1122.36Z" fill="#EFEFEF" stroke="#262626" stroke-width="2"/>
<defs>
<filter id="filter0_f_127_1799" x="486.917" y="226.058" width="993.128" height="726.807" filterUnits="userSpaceOnUse" color-interpolation-filters="sRGB">
<feFlood flood-opacity="0" result="BackgroundImageFix"/>
<feBlend mode="normal" in="SourceGraphic" in2="BackgroundImageFix" result="shape"/>
<feGaussianBlur stdDeviation="2" result="effect1_foregroundBlur_127_1799"/>
</filter>
<linearGradient id="paint0_linear_127_1799" x1="223.749" y1="1221.65" x2="214.262" y2="1233.25" gradientUnits="userSpaceOnUse">
<stop stop-color="#C7C7C7"/>
<stop offset="1" stop-color="#A8A6A6"/>
</linearGradient>
<linearGradient id="paint1_linear_127_1799" x1="146.94" y1="1357.16" x2="196.235" y2="1410.46" gradientUnits="userSpaceOnUse">
<stop stop-color="#C7C7C7"/>
<stop offset="1" stop-color="#A8A6A6"/>
</linearGradient>
<linearGradient id="paint2_linear_127_1799" x1="166.977" y1="1283.83" x2="270.018" y2="1308.2" gradientUnits="userSpaceOnUse">
<stop stop-color="#C7C7C7"/>
<stop offset="1" stop-color="#A8A6A6"/>
</linearGradient>
<linearGradient id="paint3_linear_127_1799" x1="440.862" y1="1215.31" x2="517.042" y2="1358.55" gradientUnits="userSpaceOnUse">
<stop stop-color="#C7C7C7"/>
<stop offset="1" stop-color="#A8A6A6"/>
</linearGradient>
<linearGradient id="paint4_linear_127_1799" x1="816.773" y1="1157.25" x2="816.773" y2="1681.96" gradientUnits="userSpaceOnUse">
<stop stop-color="#C7C7C7"/>
<stop offset="1" stop-color="#A8A6A6"/>
</linearGradient>
<linearGradient id="paint5_linear_127_1799" x1="928.454" y1="1161.1" x2="928.454" y2="1820.74" gradientUnits="userSpaceOnUse">
<stop stop-color="#C7C7C7"/>
<stop offset="1" stop-color="#A8A6A6"/>
</linearGradient>
<linearGradient id="paint6_linear_127_1799" x1="1238.98" y1="1540.08" x2="1261.81" y2="1187.67" gradientUnits="userSpaceOnUse">
<stop stop-color="#4AB4F5" stop-opacity="0"/>
<stop offset="0.874819" stop-color="#4AB4F5" stop-opacity="0.34"/>
</linearGradient>
<linearGradient id="paint7_linear_127_1799" x1="478.025" y1="302.843" x2="564.236" y2="343.992" gradientUnits="userSpaceOnUse">
<stop stop-color="#C7C7C7"/>
<stop offset="1" stop-color="#A8A6A6"/>
</linearGradient>
<linearGradient id="paint8_linear_127_1799" x1="549.355" y1="488.317" x2="679.855" y2="738.909" gradientUnits="userSpaceOnUse">
<stop stop-color="#C7C7C7"/>
<stop offset="1" stop-color="#A8A6A6"/>
</linearGradient>
<linearGradient id="paint9_linear_127_1799" x1="561.042" y1="756.145" x2="676.175" y2="766.63" gradientUnits="userSpaceOnUse">
<stop stop-color="#C7C7C7"/>
<stop offset="1" stop-color="#A8A6A6"/>
</linearGradient>
<linearGradient id="paint10_linear_127_1799" x1="794.807" y1="472.375" x2="904.916" y2="696.521" gradientUnits="userSpaceOnUse">
<stop stop-color="#C7C7C7"/>
<stop offset="1" stop-color="#A8A6A6"/>
</linearGradient>
<linearGradient id="paint11_linear_127_1799" x1="769.768" y1="700.347" x2="894.7" y2="721.285" gradientUnits="userSpaceOnUse">
<stop stop-color="#C7C7C7"/>
<stop offset="1" stop-color="#A8A6A6"/>
</linearGradient>
<linearGradient id="paint12_linear_127_1799" x1="1095.37" y1="84.9815" x2="1197.92" y2="178.969" gradientUnits="userSpaceOnUse">
<stop stop-color="#C7C7C7"/>
<stop offset="1" stop-color="#A8A6A6"/>
</linearGradient>
<linearGradient id="paint13_linear_127_1799" x1="925.124" y1="383.124" x2="1092.84" y2="585.249" gradientUnits="userSpaceOnUse">
<stop stop-color="#C7C7C7"/>
<stop offset="1" stop-color="#A8A6A6"/>
</linearGradient>
<linearGradient id="paint14_linear_127_1799" x1="981.829" y1="633.392" x2="1089.54" y2="666.369" gradientUnits="userSpaceOnUse">
<stop stop-color="#C7C7C7"/>
<stop offset="1" stop-color="#A8A6A6"/>
</linearGradient>
<linearGradient id="paint15_linear_127_1799" x1="1220.6" y1="244.402" x2="1303.89" y2="321.567" gradientUnits="userSpaceOnUse">
<stop stop-color="#C7C7C7"/>
<stop offset="1" stop-color="#A8A6A6"/>
</linearGradient>
<linearGradient id="paint16_linear_127_1799" x1="1245.65" y1="325.709" x2="1262.52" y2="383.537" gradientUnits="userSpaceOnUse">
<stop stop-color="#C7C7C7"/>
<stop offset="1" stop-color="#A8A6A6"/>
</linearGradient>
<linearGradient id="paint17_linear_127_1799" x1="1187.21" y1="335.276" x2="1276.86" y2="419.111" gradientUnits="userSpaceOnUse">
<stop stop-color="#C7C7C7"/>
<stop offset="0.850065" stop-color="#A8A6A6"/>
</linearGradient>
<linearGradient id="paint18_linear_127_1799" x1="1272.37" y1="461.218" x2="1391.35" y2="562.262" gradientUnits="userSpaceOnUse">
<stop stop-color="#C7C7C7"/>
<stop offset="1" stop-color="#A8A6A6"/>
</linearGradient>
<linearGradient id="paint19_linear_127_1799" x1="2026.22" y1="1122.36" x2="2026.22" y2="1331.63" gradientUnits="userSpaceOnUse">
<stop stop-color="#C7C7C7"/>
<stop offset="1" stop-color="#A8A6A6"/>
</linearGradient>
<linearGradient id="paint20_linear_127_1799" x1="2122.56" y1="1387.23" x2="2123.83" y2="1694.68" gradientUnits="userSpaceOnUse">
<stop offset="0.00299988" stop-color="#A8A6A6"/>
<stop offset="0.508" stop-color="#C7C7C7"/>
<stop offset="1" stop-color="#A8A6A6"/>
</linearGradient>
<linearGradient id="paint21_linear_127_1799" x1="2080.76" y1="1632.95" x2="2080.76" y2="1725.7" gradientUnits="userSpaceOnUse">
<stop stop-color="#C7C7C7"/>
<stop offset="1" stop-color="#A8A6A6"/>
</linearGradient>
<linearGradient id="paint22_linear_127_1799" x1="2294.29" y1="1367.9" x2="2333.99" y2="1590.13" gradientUnits="userSpaceOnUse">
<stop stop-color="#C7C7C7"/>
<stop offset="1" stop-color="#A8A6A6"/>
</linearGradient>
<linearGradient id="paint23_linear_127_1799" x1="2277.82" y1="1579.88" x2="2277.82" y2="1672.63" gradientUnits="userSpaceOnUse">
<stop stop-color="#C7C7C7"/>
<stop offset="1" stop-color="#A8A6A6"/>
</linearGradient>
</defs>
</svg>
